<svg xmlns="http://www.w3.org/2000/svg" width="113.458" height="44.471" viewBox="0 0 113.458 44.471">
  <g id="그룹_1001" data-name="그룹 1001" transform="translate(-54.625 -105.521)">
    <circle id="타원_156" data-name="타원 156" cx="15.141" cy="15.141" r="15.141" transform="translate(59.538 108.732)" fill="none" stroke="#fff" stroke-width="0.6"/>
    <circle id="타원_157" data-name="타원 157" cx="11.365" cy="11.365" r="11.365" transform="translate(63.314 112.509)" fill="none" stroke="#fff" stroke-width="0.6"/>
    <circle id="타원_158" data-name="타원 158" cx="7.516" cy="7.516" r="7.516" transform="translate(67.163 116.358)" fill="none" stroke="#fff" stroke-width="0.6"/>
    <path id="패스_8341" data-name="패스 8341" d="M102.024,147.457H94.583l9.768-23.207h7.441Z" transform="translate(-13.576 -6.363)" fill="#fff"/>
    <path id="패스_8342" data-name="패스 8342" d="M125.078,124.349H133.5l-12.587,11.243,3.343,11.866H116.13l-2.557-12.1Z" transform="translate(-20.028 -6.397)" fill="#fff"/>
    <path id="패스_8343" data-name="패스 8343" d="M156.615,125.179l-1.606,5.179s-1.082-1.18-5.048-1.114-3.54,3.442-2.327,4.392,3.737,4.164,3.639,6.556-2.458,5.867-5.835,7.047-8.1,1.147-11.833.491l1.639-5.539a7.609,7.609,0,0,0,5.31,1.934c3.048-.229,3.769-1.442,3.474-3.048s-2-3.671-3.376-5.015-1.213-4.589.983-7.637,5.7-3.376,8.916-3.606A24.843,24.843,0,0,1,156.615,125.179Z" transform="translate(-26.834 -6.539)" fill="#fff"/>
    <path id="패스_8344" data-name="패스 8344" d="M214.627,125.179l-1.606,5.179s-1.081-1.18-5.048-1.114-3.54,3.442-2.327,4.392,3.736,4.164,3.638,6.556-2.458,5.867-5.835,7.047-8.1,1.147-11.833.491l1.639-5.539a7.609,7.609,0,0,0,5.31,1.934c3.048-.229,3.769-1.442,3.475-3.048s-2-3.671-3.376-5.015-1.213-4.589.983-7.637,5.7-3.376,8.916-3.606A24.85,24.85,0,0,1,214.627,125.179Z" transform="translate(-46.543 -6.539)" fill="#fff"/>
    <path id="패스_8345" data-name="패스 8345" d="M181.272,143.065H170.895l7.919-18.815h-7.441l-9.768,23.207h7.441v0l9.865.028Z" transform="translate(-36.347 -6.363)" fill="#fff"/>
    <g id="그룹_967" data-name="그룹 967" transform="translate(80.897 143.863)">
      <path id="패스_8346" data-name="패스 8346" d="M95.672,166.38l-.726.9v1.1h-.53V163.89h.53v2.591l2.074-2.591h.662l-1.666,2.064,1.782,2.428h-.677Z" transform="translate(-94.416 -163.694)" fill="#fff"/>
      <path id="패스_8347" data-name="패스 8347" d="M101.85,165.935a1.481,1.481,0,0,1,.528.6,2.056,2.056,0,0,1,0,1.721,1.481,1.481,0,0,1-.528.6,1.421,1.421,0,0,1-1.517,0,1.505,1.505,0,0,1-.528-.6,2.03,2.03,0,0,1,0-1.721,1.505,1.505,0,0,1,.528-.6,1.421,1.421,0,0,1,1.517,0Zm-1.259.446a1.038,1.038,0,0,0-.343.421,1.506,1.506,0,0,0,0,1.194,1.033,1.033,0,0,0,.343.421.892.892,0,0,0,1,0,1,1,0,0,0,.343-.421,1.536,1.536,0,0,0,0-1.194,1.007,1.007,0,0,0-.343-.421.892.892,0,0,0-1,0Z" transform="translate(-96.182 -164.314)" fill="#fff"/>
      <path id="패스_8348" data-name="패스 8348" d="M105.615,165.795v.493a1.105,1.105,0,0,1,.386-.395,1.168,1.168,0,0,1,.654-.177,1.121,1.121,0,0,1,.394.056v.55a.935.935,0,0,0-.429-.09.906.906,0,0,0-.517.154,1.052,1.052,0,0,0-.359.409,1.194,1.194,0,0,0-.129.547V169h-.52v-3.208Z" transform="translate(-98.044 -164.314)" fill="#fff"/>
      <path id="패스_8349" data-name="패스 8349" d="M109.078,168.862a1.477,1.477,0,0,1-.517-.6,2.076,2.076,0,0,1,0-1.721,1.477,1.477,0,0,1,.517-.6,1.374,1.374,0,0,1,1.489,0,1.463,1.463,0,0,1,.515.6,1.966,1.966,0,0,1,.184.86,1.877,1.877,0,0,1-.011.236h-2.362a1.129,1.129,0,0,0,.3.69.837.837,0,0,0,.633.269.968.968,0,0,0,.508-.132.687.687,0,0,0,.3-.334h.53a1.271,1.271,0,0,1-.485.688,1.406,1.406,0,0,1-.853.266A1.318,1.318,0,0,1,109.078,168.862Zm1.381-2.391a.892.892,0,0,0-1.272,0,1.133,1.133,0,0,0-.292.693h1.862A1.148,1.148,0,0,0,110.458,166.471Z" transform="translate(-99.158 -164.314)" fill="#fff"/>
      <path id="패스_8350" data-name="패스 8350" d="M114.224,168.862a1.489,1.489,0,0,1-.512-.605,2.057,2.057,0,0,1,0-1.716,1.49,1.49,0,0,1,.512-.605,1.274,1.274,0,0,1,.73-.219,1.2,1.2,0,0,1,.636.163,1.033,1.033,0,0,1,.389.392v-.477h.52V169h-.52v-.477a1.032,1.032,0,0,1-.389.392,1.2,1.2,0,0,1-.636.163A1.279,1.279,0,0,1,114.224,168.862Zm1.287-.446a1.039,1.039,0,0,0,.351-.421,1.477,1.477,0,0,0,0-1.194,1.043,1.043,0,0,0-.351-.421.888.888,0,0,0-.512-.154.863.863,0,0,0-.5.151.988.988,0,0,0-.341.421,1.549,1.549,0,0,0,0,1.2.988.988,0,0,0,.341.421.863.863,0,0,0,.5.151A.883.883,0,0,0,115.512,168.416Z" transform="translate(-100.908 -164.314)" fill="#fff"/>
      <path id="패스_8351" data-name="패스 8351" d="M123.627,163.9a1.432,1.432,0,0,1,.565.479,1.36,1.36,0,0,1,.237.7h-.545a.9.9,0,0,0-.331-.605,1.131,1.131,0,0,0-.744-.236,1.218,1.218,0,0,0-.73.193.6.6,0,0,0-.265.5.587.587,0,0,0,.126.384.993.993,0,0,0,.391.267,4.681,4.681,0,0,0,.72.219,2.254,2.254,0,0,1,1.062.5,1.114,1.114,0,0,1,.33.833,1.143,1.143,0,0,1-.212.687,1.372,1.372,0,0,1-.58.455,2.037,2.037,0,0,1-.817.159,1.908,1.908,0,0,1-.84-.179,1.49,1.49,0,0,1-.593-.505,1.47,1.47,0,0,1-.248-.757h.545a.956.956,0,0,0,.356.673,1.243,1.243,0,0,0,.815.258,1.411,1.411,0,0,0,.535-.1.844.844,0,0,0,.369-.269.638.638,0,0,0,.131-.393.645.645,0,0,0-.126-.409.969.969,0,0,0-.391-.278,4.442,4.442,0,0,0-.729-.221,2.287,2.287,0,0,1-1.043-.471,1.1,1.1,0,0,1-.335-.852,1.047,1.047,0,0,1,.2-.636,1.266,1.266,0,0,1,.553-.418,2.092,2.092,0,0,1,.8-.146A1.793,1.793,0,0,1,123.627,163.9Z" transform="translate(-103.5 -163.639)" fill="#fff"/>
      <path id="패스_8352" data-name="패스 8352" d="M128.483,165.844h-.641v2.7h-.52v-2.7h-.641v-.511h.641v-.975h.52v.975h.641Z" transform="translate(-105.378 -163.853)" fill="#fff"/>
      <path id="패스_8353" data-name="패스 8353" d="M130.544,168.862a1.5,1.5,0,0,1-.512-.605,2.063,2.063,0,0,1,0-1.716,1.5,1.5,0,0,1,.512-.605,1.274,1.274,0,0,1,.73-.219,1.2,1.2,0,0,1,.636.163,1.032,1.032,0,0,1,.389.392v-.477h.52V169h-.52v-.477a1.032,1.032,0,0,1-.389.392,1.2,1.2,0,0,1-.636.163A1.279,1.279,0,0,1,130.544,168.862Zm1.287-.446a1.039,1.039,0,0,0,.351-.421,1.477,1.477,0,0,0,0-1.194,1.043,1.043,0,0,0-.351-.421.889.889,0,0,0-.512-.154.863.863,0,0,0-.5.151.984.984,0,0,0-.341.421,1.549,1.549,0,0,0,0,1.2.984.984,0,0,0,.341.421.863.863,0,0,0,.5.151A.885.885,0,0,0,131.832,168.416Z" transform="translate(-106.453 -164.314)" fill="#fff"/>
      <path id="패스_8354" data-name="패스 8354" d="M136.106,165.795v.489a1.077,1.077,0,0,1,.366-.393,1.061,1.061,0,0,1,.613-.174,1.074,1.074,0,0,1,.6.174,1.149,1.149,0,0,1,.411.491,1.754,1.754,0,0,1,.146.743V169h-.52v-1.778a1.2,1.2,0,0,0-.2-.743.658.658,0,0,0-.553-.261.7.7,0,0,0-.444.154,1.048,1.048,0,0,0-.31.413,1.367,1.367,0,0,0-.114.555V169h-.52v-3.208Z" transform="translate(-108.404 -164.314)" fill="#fff"/>
      <path id="패스_8355" data-name="패스 8355" d="M141.2,168.17a1.486,1.486,0,0,1-.512-.605,2.057,2.057,0,0,1,0-1.716,1.486,1.486,0,0,1,.512-.605,1.27,1.27,0,0,1,.729-.219,1.2,1.2,0,0,1,.636.163,1.032,1.032,0,0,1,.389.392v-1.9h.52v4.632h-.52v-.477a1.032,1.032,0,0,1-.389.392,1.2,1.2,0,0,1-.636.163A1.275,1.275,0,0,1,141.2,168.17Zm1.287-.446a1.034,1.034,0,0,0,.351-.421,1.477,1.477,0,0,0,0-1.194,1.038,1.038,0,0,0-.351-.421.888.888,0,0,0-.512-.154.863.863,0,0,0-.5.151.988.988,0,0,0-.341.421,1.549,1.549,0,0,0,0,1.2.988.988,0,0,0,.341.421.863.863,0,0,0,.5.151A.883.883,0,0,0,142.487,167.724Z" transform="translate(-110.073 -163.622)" fill="#fff"/>
      <path id="패스_8356" data-name="패스 8356" d="M146.711,168.862a1.491,1.491,0,0,1-.512-.605,2.063,2.063,0,0,1,0-1.716,1.491,1.491,0,0,1,.512-.605,1.272,1.272,0,0,1,.729-.219,1.2,1.2,0,0,1,.636.163,1.032,1.032,0,0,1,.389.392v-.477h.52V169h-.52v-.477a1.032,1.032,0,0,1-.389.392,1.2,1.2,0,0,1-.636.163A1.277,1.277,0,0,1,146.711,168.862Zm1.287-.446a1.029,1.029,0,0,0,.351-.421,1.477,1.477,0,0,0,0-1.194,1.033,1.033,0,0,0-.351-.421.888.888,0,0,0-.512-.154.863.863,0,0,0-.5.151.993.993,0,0,0-.341.421,1.549,1.549,0,0,0,0,1.2.993.993,0,0,0,.341.421.863.863,0,0,0,.5.151A.883.883,0,0,0,148,168.416Z" transform="translate(-111.946 -164.314)" fill="#fff"/>
      <path id="패스_8357" data-name="패스 8357" d="M152.272,165.795v.493a1.106,1.106,0,0,1,.386-.395,1.167,1.167,0,0,1,.653-.177,1.118,1.118,0,0,1,.394.056v.55a.934.934,0,0,0-.429-.09.908.908,0,0,0-.518.154,1.05,1.05,0,0,0-.358.409,1.194,1.194,0,0,0-.129.547V169h-.52v-3.208Z" transform="translate(-113.896 -164.314)" fill="#fff"/>
      <path id="패스_8358" data-name="패스 8358" d="M155.73,168.17a1.5,1.5,0,0,1-.512-.605,2.063,2.063,0,0,1,0-1.716,1.5,1.5,0,0,1,.512-.605,1.274,1.274,0,0,1,.73-.219,1.2,1.2,0,0,1,.636.163,1.032,1.032,0,0,1,.389.392v-1.9H158v4.632h-.52v-.477a1.032,1.032,0,0,1-.389.392,1.2,1.2,0,0,1-.636.163A1.279,1.279,0,0,1,155.73,168.17Zm1.287-.446a1.039,1.039,0,0,0,.351-.421,1.477,1.477,0,0,0,0-1.194,1.043,1.043,0,0,0-.351-.421.889.889,0,0,0-.512-.154.863.863,0,0,0-.5.151.983.983,0,0,0-.341.421,1.549,1.549,0,0,0,0,1.2.983.983,0,0,0,.341.421.863.863,0,0,0,.5.151A.884.884,0,0,0,157.018,167.724Z" transform="translate(-115.01 -163.622)" fill="#fff"/>
      <path id="패스_8359" data-name="패스 8359" d="M163.48,167.849H165.7v.533h-2.751V163.89h.53Z" transform="translate(-117.701 -163.694)" fill="#fff"/>
      <path id="패스_8360" data-name="패스 8360" d="M168.3,168.862a1.486,1.486,0,0,1-.512-.605,2.057,2.057,0,0,1,0-1.716,1.486,1.486,0,0,1,.512-.605,1.27,1.27,0,0,1,.729-.219,1.2,1.2,0,0,1,.636.163,1.026,1.026,0,0,1,.388.392v-.477h.52V169h-.52v-.477a1.026,1.026,0,0,1-.388.392,1.2,1.2,0,0,1-.636.163A1.275,1.275,0,0,1,168.3,168.862Zm1.287-.446a1.034,1.034,0,0,0,.351-.421,1.477,1.477,0,0,0,0-1.194,1.038,1.038,0,0,0-.351-.421.888.888,0,0,0-.512-.154.863.863,0,0,0-.5.151.988.988,0,0,0-.341.421,1.55,1.55,0,0,0,0,1.2.988.988,0,0,0,.341.421.863.863,0,0,0,.5.151A.883.883,0,0,0,169.592,168.416Z" transform="translate(-119.282 -164.314)" fill="#fff"/>
      <path id="패스_8361" data-name="패스 8361" d="M175.038,165.837a1.142,1.142,0,0,1,.452.331.8.8,0,0,1,.18.479h-.51a.417.417,0,0,0-.232-.331,1.033,1.033,0,0,0-.535-.129.993.993,0,0,0-.518.123.356.356,0,0,0-.2.3.377.377,0,0,0,.189.33,1.934,1.934,0,0,0,.7.2,1.853,1.853,0,0,1,.9.326.766.766,0,0,1,.273.617.836.836,0,0,1-.174.528,1.11,1.11,0,0,1-.471.345,1.759,1.759,0,0,1-.662.121,1.652,1.652,0,0,1-.666-.127,1.093,1.093,0,0,1-.452-.347.941.941,0,0,1-.184-.5h.51a.511.511,0,0,0,.235.357.972.972,0,0,0,.572.149,1.05,1.05,0,0,0,.561-.137.405.405,0,0,0,.222-.351.364.364,0,0,0-.2-.323,2.13,2.13,0,0,0-.709-.193,1.8,1.8,0,0,1-.873-.316.851.851,0,0,1-.114-1.13,1.045,1.045,0,0,1,.447-.327,1.672,1.672,0,0,1,.635-.116A1.6,1.6,0,0,1,175.038,165.837Z" transform="translate(-121.158 -164.314)" fill="#fff"/>
      <path id="패스_8362" data-name="패스 8362" d="M178.545,168.862a1.477,1.477,0,0,1-.517-.6,2.076,2.076,0,0,1,0-1.721,1.477,1.477,0,0,1,.517-.6,1.374,1.374,0,0,1,1.489,0,1.463,1.463,0,0,1,.515.6,1.966,1.966,0,0,1,.184.86,2.05,2.05,0,0,1-.01.236h-2.362a1.129,1.129,0,0,0,.3.69.837.837,0,0,0,.634.269.968.968,0,0,0,.507-.132.69.69,0,0,0,.3-.334h.53a1.275,1.275,0,0,1-.485.688,1.4,1.4,0,0,1-.852.266A1.32,1.32,0,0,1,178.545,168.862Zm1.381-2.391a.892.892,0,0,0-1.272,0,1.129,1.129,0,0,0-.292.693h1.863A1.152,1.152,0,0,0,179.925,166.471Z" transform="translate(-122.76 -164.314)" fill="#fff"/>
      <path id="패스_8363" data-name="패스 8363" d="M183.742,165.795v.493a1.105,1.105,0,0,1,.386-.395,1.168,1.168,0,0,1,.654-.177,1.123,1.123,0,0,1,.393.056v.55a.937.937,0,0,0-.429-.09.9.9,0,0,0-.517.154,1.052,1.052,0,0,0-.359.409,1.194,1.194,0,0,0-.129.547V169h-.52v-3.208Z" transform="translate(-124.588 -164.314)" fill="#fff"/>
      <path id="패스_8364" data-name="패스 8364" d="M191.322,163.9a1.436,1.436,0,0,1,.565.479,1.373,1.373,0,0,1,.238.7h-.546a.9.9,0,0,0-.33-.605,1.131,1.131,0,0,0-.745-.236,1.217,1.217,0,0,0-.729.193.6.6,0,0,0-.265.5.583.583,0,0,0,.126.384.988.988,0,0,0,.391.267,4.659,4.659,0,0,0,.72.219,2.252,2.252,0,0,1,1.062.5,1.112,1.112,0,0,1,.331.833,1.138,1.138,0,0,1-.212.687,1.371,1.371,0,0,1-.58.455,2.035,2.035,0,0,1-.817.159,1.908,1.908,0,0,1-.84-.179,1.485,1.485,0,0,1-.593-.505,1.463,1.463,0,0,1-.247-.757h.545a.958.958,0,0,0,.356.673,1.242,1.242,0,0,0,.815.258,1.417,1.417,0,0,0,.535-.1.839.839,0,0,0,.368-.269.635.635,0,0,0,.132-.393.65.65,0,0,0-.127-.409.976.976,0,0,0-.392-.278,4.422,4.422,0,0,0-.729-.221,2.287,2.287,0,0,1-1.042-.471,1.1,1.1,0,0,1-.336-.852,1.044,1.044,0,0,1,.2-.636,1.255,1.255,0,0,1,.553-.418,2.086,2.086,0,0,1,.8-.146A1.793,1.793,0,0,1,191.322,163.9Z" transform="translate(-126.5 -163.639)" fill="#fff"/>
      <path id="패스_8365" data-name="패스 8365" d="M195.331,163.678v1.913a1.076,1.076,0,0,1,.366-.393,1.06,1.06,0,0,1,.613-.174,1.072,1.072,0,0,1,.6.174,1.139,1.139,0,0,1,.411.491,1.754,1.754,0,0,1,.147.743v1.879h-.52v-1.778a1.2,1.2,0,0,0-.2-.743.657.657,0,0,0-.553-.261.7.7,0,0,0-.444.154,1.048,1.048,0,0,0-.31.413,1.356,1.356,0,0,0-.114.555v1.66h-.52v-4.632Z" transform="translate(-128.526 -163.622)" fill="#fff"/>
      <path id="패스_8366" data-name="패스 8366" d="M201.984,165.935a1.486,1.486,0,0,1,.528.6,2.056,2.056,0,0,1,0,1.721,1.486,1.486,0,0,1-.528.6,1.421,1.421,0,0,1-1.517,0,1.5,1.5,0,0,1-.528-.6,2.024,2.024,0,0,1,0-1.721,1.5,1.5,0,0,1,.528-.6,1.421,1.421,0,0,1,1.517,0Zm-1.259.446a1.027,1.027,0,0,0-.343.421,1.506,1.506,0,0,0,0,1.194,1.023,1.023,0,0,0,.343.421.892.892,0,0,0,1,0,1,1,0,0,0,.343-.421,1.536,1.536,0,0,0,0-1.194,1.007,1.007,0,0,0-.343-.421.892.892,0,0,0-1,0Z" transform="translate(-130.203 -164.314)" fill="#fff"/>
      <path id="패스_8367" data-name="패스 8367" d="M207.235,165.935a1.486,1.486,0,0,1,.528.6,2.056,2.056,0,0,1,0,1.721,1.486,1.486,0,0,1-.528.6,1.421,1.421,0,0,1-1.517,0,1.5,1.5,0,0,1-.528-.6,2.024,2.024,0,0,1,0-1.721,1.5,1.5,0,0,1,.528-.6,1.421,1.421,0,0,1,1.517,0Zm-1.259.446a1.027,1.027,0,0,0-.343.421,1.5,1.5,0,0,0,0,1.194,1.023,1.023,0,0,0,.343.421.892.892,0,0,0,1,0,1,1,0,0,0,.343-.421,1.536,1.536,0,0,0,0-1.194,1.007,1.007,0,0,0-.343-.421.892.892,0,0,0-1,0Z" transform="translate(-131.987 -164.314)" fill="#fff"/>
      <path id="패스_8368" data-name="패스 8368" d="M211.7,165.844h-.641v2.7h-.52v-2.7H209.9v-.511h.641v-.975h.52v.975h.641Z" transform="translate(-133.652 -163.853)" fill="#fff"/>
      <path id="패스_8369" data-name="패스 8369" d="M213.9,163.7a.428.428,0,0,1,0,.544.323.323,0,0,1-.25.109.316.316,0,0,1-.244-.109.425.425,0,0,1,0-.544.314.314,0,0,1,.244-.11A.322.322,0,0,1,213.9,163.7Zm-.508,4.584v-3.213h.52v3.213Z" transform="translate(-134.811 -163.593)" fill="#fff"/>
      <path id="패스_8370" data-name="패스 8370" d="M215.984,165.795v.489a1.073,1.073,0,0,1,.366-.393,1.056,1.056,0,0,1,.613-.174,1.071,1.071,0,0,1,.6.174,1.145,1.145,0,0,1,.412.491,1.764,1.764,0,0,1,.146.743V169h-.52v-1.778a1.2,1.2,0,0,0-.2-.743.657.657,0,0,0-.553-.261.7.7,0,0,0-.444.154,1.043,1.043,0,0,0-.311.413,1.367,1.367,0,0,0-.114.555V169h-.52v-3.208Z" transform="translate(-135.543 -164.314)" fill="#fff"/>
      <path id="패스_8371" data-name="패스 8371" d="M221.008,170.121a1.379,1.379,0,0,1-.432-.816h.53a.77.77,0,0,0,.26.46.862.862,0,0,0,.578.179.819.819,0,0,0,.644-.277,1.084,1.084,0,0,0,.244-.743v-.443a1.026,1.026,0,0,1-.388.392,1.205,1.205,0,0,1-.636.162,1.294,1.294,0,0,1-.73-.216,1.479,1.479,0,0,1-.512-.594,1.885,1.885,0,0,1-.187-.844,1.908,1.908,0,0,1,.187-.847,1.509,1.509,0,0,1,.512-.6,1.277,1.277,0,0,1,.73-.219,1.205,1.205,0,0,1,.636.163,1.03,1.03,0,0,1,.388.392v-.477h.52v3.135a1.672,1.672,0,0,1-.18.782,1.328,1.328,0,0,1-.5.538,1.384,1.384,0,0,1-.73.193A1.33,1.33,0,0,1,221.008,170.121Zm1.357-1.736a1.016,1.016,0,0,0,.351-.415,1.439,1.439,0,0,0,0-1.178,1.016,1.016,0,0,0-.351-.415.9.9,0,0,0-.512-.151.859.859,0,0,0-.5.151.99.99,0,0,0-.341.415,1.488,1.488,0,0,0,0,1.178.99.99,0,0,0,.341.415.86.86,0,0,0,.5.152A.9.9,0,0,0,222.365,168.385Z" transform="translate(-137.213 -164.314)" fill="#fff"/>
    </g>
    <line id="선_70" data-name="선 70" x2="36.726" transform="translate(54.625 123.884)" fill="none" stroke="#fff" stroke-width="0.6"/>
    <line id="선_71" data-name="선 71" y2="36.726" transform="translate(74.669 105.521)" fill="none" stroke="#fff" stroke-width="0.6"/>
    <circle id="타원_159" data-name="타원 159" cx="2.356" cy="2.356" r="2.356" transform="translate(72.324 121.518)" fill="#ca0011" stroke="#fff" stroke-width="0.6"/>
  </g>
</svg>
