<svg xmlns="http://www.w3.org/2000/svg" width="261.865" height="131" viewBox="0 0 261.865 131">
  <path id="패스_366" data-name="패스 366" d="M382.191,1601.253,410,1595.159l-.136-20.256-27.482-5.638a100.859,100.859,0,0,0-5.892-21.815l20.959-19.111L387.2,1510.864l-27.025,8.992a102.169,102.169,0,0,0-15.842-15.333l8.833-27.779-17.611-10.008L315.881,1488.9a100.96,100.96,0,0,0-20.323-4.885l-6.536-29.814-10.022.068v69.3c.848-.041,1.7-.076,2.554-.082a61.206,61.206,0,1,1,.82,122.409c-1.132.008-2.256-.021-3.374-.073v70.246l10.3-.069,6.289-30.649a100.89,100.89,0,0,0,19.454-4.6l20.82,22.834,17.475-10.247-9.375-28.174a102.2,102.2,0,0,0,15.462-14.773l28.032,8.912,10.01-17.61-21.307-18.913A100.856,100.856,0,0,0,382.191,1601.253Z" transform="translate(-1454.204 410) rotate(-90)" fill="#fff" opacity="0.03"/>
</svg>
