<svg xmlns="http://www.w3.org/2000/svg" xmlns:xlink="http://www.w3.org/1999/xlink" width="32.996" height="32.996" viewBox="0 0 32.996 32.996">
  <defs>
    <filter id="타원_186" x="0" y="0" width="32.996" height="32.996" filterUnits="userSpaceOnUse">
      <feOffset dx="2" dy="2" input="SourceAlpha"/>
      <feGaussianBlur stdDeviation="1" result="blur"/>
      <feFlood flood-color="#1a1311" flood-opacity="0.302"/>
      <feComposite operator="in" in2="blur"/>
      <feComposite in="SourceGraphic"/>
    </filter>
  </defs>
  <g id="그룹_1351" data-name="그룹 1351" transform="translate(-598.196 -1019.004)">
    <g id="그룹_1349" data-name="그룹 1349">
      <g transform="matrix(1, 0, 0, 1, 598.2, 1019)" filter="url(#타원_186)">
        <circle id="타원_186-2" data-name="타원 186" cx="13.498" cy="13.498" r="13.498" transform="translate(1 1)" fill="#cc0c2f"/>
      </g>
    </g>
    <g id="그룹_1350" data-name="그룹 1350">
      <path id="패스_8540" data-name="패스 8540" d="M608.351,1036.433a4.066,4.066,0,0,1,2.4-3.644v-.094a3.979,3.979,0,0,1-1.85-3.322c0-2.246,1.775-3.681,4.209-3.681,2.473,0,4.059,1.492,4.059,3.719a4.071,4.071,0,0,1-1.793,3.19v.094a4.063,4.063,0,0,1,2.34,3.738c0,2.113-1.869,3.737-4.7,3.737C610.352,1040.17,608.351,1038.622,608.351,1036.433Zm6.776-.095c0-1.453-1.283-2.058-3.1-2.794a3.359,3.359,0,0,0-1.284,2.586,2.14,2.14,0,0,0,2.341,2.076A1.831,1.831,0,0,0,615.127,1036.338Zm-.226-6.757a1.779,1.779,0,0,0-1.85-1.944,1.624,1.624,0,0,0-1.7,1.736c0,1.321,1.076,1.963,2.548,2.548A3.343,3.343,0,0,0,614.9,1029.581Z" fill="#fff"/>
    </g>
  </g>
</svg>
