<svg xmlns="http://www.w3.org/2000/svg" xmlns:xlink="http://www.w3.org/1999/xlink" width="32.996" height="32.996" viewBox="0 0 32.996 32.996">
  <defs>
    <filter id="타원_182" x="0" y="0" width="32.996" height="32.996" filterUnits="userSpaceOnUse">
      <feOffset dx="2" dy="2" input="SourceAlpha"/>
      <feGaussianBlur stdDeviation="1" result="blur"/>
      <feFlood flood-color="#1a1311" flood-opacity="0.302"/>
      <feComposite operator="in" in2="blur"/>
      <feComposite in="SourceGraphic"/>
    </filter>
  </defs>
  <g id="그룹_1339" data-name="그룹 1339" transform="translate(-354.85 -1019.004)">
    <g id="그룹_1337" data-name="그룹 1337">
      <g transform="matrix(1, 0, 0, 1, 354.85, 1019)" filter="url(#타원_182)">
        <circle id="타원_182-2" data-name="타원 182" cx="13.498" cy="13.498" r="13.498" transform="translate(1 1)" fill="#cc0c2f"/>
      </g>
    </g>
    <g id="그룹_1338" data-name="그룹 1338">
      <path id="패스_8536" data-name="패스 8536" d="M364.93,1038.3c3.794-3.4,6.04-6.022,6.04-8.173a2,2,0,0,0-2.1-2.265,3.614,3.614,0,0,0-2.567,1.435l-1.51-1.511a5.668,5.668,0,0,1,4.436-2.113,4.1,4.1,0,0,1,4.4,4.3c0,2.529-2.1,5.248-4.644,7.739.7-.075,1.624-.152,2.265-.152h3.039v2.341H364.93Z" fill="#fff"/>
    </g>
  </g>
</svg>
