<svg xmlns="http://www.w3.org/2000/svg" xmlns:xlink="http://www.w3.org/1999/xlink" width="32.996" height="32.996" viewBox="0 0 32.996 32.996">
  <defs>
    <filter id="타원_190" x="0" y="0" width="32.996" height="32.996" filterUnits="userSpaceOnUse">
      <feOffset dx="2" dy="2" input="SourceAlpha"/>
      <feGaussianBlur stdDeviation="1" result="blur"/>
      <feFlood flood-color="#1a1311" flood-opacity="0.302"/>
      <feComposite operator="in" in2="blur"/>
      <feComposite in="SourceGraphic"/>
    </filter>
  </defs>
  <g id="그룹_1363" data-name="그룹 1363" transform="translate(-514.719 -1019.004)">
    <g id="그룹_1361" data-name="그룹 1361">
      <g transform="matrix(1, 0, 0, 1, 514.72, 1019)" filter="url(#타원_190)">
        <circle id="타원_190-2" data-name="타원 190" cx="13.498" cy="13.498" r="13.498" transform="translate(1 1)" fill="#e37e13"/>
      </g>
    </g>
    <g id="그룹_1362" data-name="그룹 1362">
      <path id="패스_8545" data-name="패스 8545" d="M531.848,1029.3a3.034,3.034,0,0,0-2.152-1.02c-1.6,0-2.925,1.208-3.038,4.7a4.065,4.065,0,0,1,2.868-1.492c2.341,0,4,1.4,4,4.4a4.375,4.375,0,0,1-4.379,4.662c-2.661,0-5.021-2.133-5.021-7.06,0-5.21,2.586-7.436,5.4-7.436a5.172,5.172,0,0,1,3.794,1.585Zm-.868,6.588c0-1.661-.774-2.436-1.982-2.436a2.759,2.759,0,0,0-2.284,1.473c.265,2.548,1.208,3.529,2.378,3.529C530.131,1038.449,530.98,1037.581,530.98,1035.883Z" fill="#fff"/>
    </g>
  </g>
</svg>
