<svg xmlns="http://www.w3.org/2000/svg" xmlns:xlink="http://www.w3.org/1999/xlink" width="32.996" height="32.996" viewBox="0 0 32.996 32.996">
  <defs>
    <filter id="타원_187" x="0" y="0" width="32.996" height="32.996" filterUnits="userSpaceOnUse">
      <feOffset dx="2" dy="2" input="SourceAlpha"/>
      <feGaussianBlur stdDeviation="1" result="blur"/>
      <feFlood flood-color="#1a1311" flood-opacity="0.302"/>
      <feComposite operator="in" in2="blur"/>
      <feComposite in="SourceGraphic"/>
    </filter>
  </defs>
  <g id="그룹_1354" data-name="그룹 1354" transform="translate(-638.248 -1019.004)">
    <g id="그룹_1352" data-name="그룹 1352">
      <g transform="matrix(1, 0, 0, 1, 638.25, 1019)" filter="url(#타원_187)">
        <circle id="타원_187-2" data-name="타원 187" cx="13.498" cy="13.498" r="13.498" transform="translate(1 1)" fill="#e37e13"/>
      </g>
    </g>
    <g id="그룹_1353" data-name="그룹 1353">
      <path id="패스_8541" data-name="패스 8541" d="M650.149,1037.3a3.2,3.2,0,0,0,2.208.981c1.567,0,2.869-1.188,2.982-4.7a3.884,3.884,0,0,1-2.869,1.528c-2.321,0-4-1.434-4-4.4a4.378,4.378,0,0,1,4.4-4.662c2.642,0,5.021,2.076,5.021,6.927,0,5.285-2.586,7.569-5.361,7.569a5.239,5.239,0,0,1-3.832-1.586Zm5.153-5.662c-.246-2.549-1.208-3.492-2.4-3.492-1.038,0-1.887.849-1.887,2.567,0,1.642.774,2.416,1.982,2.416A2.79,2.79,0,0,0,655.3,1031.636Z" fill="#fff"/>
    </g>
  </g>
</svg>
