<svg xmlns="http://www.w3.org/2000/svg" xmlns:xlink="http://www.w3.org/1999/xlink" width="32.996" height="32.996" viewBox="0 0 32.996 32.996">
  <defs>
    <filter id="타원_183" x="0" y="0" width="32.996" height="32.996" filterUnits="userSpaceOnUse">
      <feOffset dx="2" dy="2" input="SourceAlpha"/>
      <feGaussianBlur stdDeviation="1" result="blur"/>
      <feFlood flood-color="#1a1311" flood-opacity="0.302"/>
      <feComposite operator="in" in2="blur"/>
      <feComposite in="SourceGraphic"/>
    </filter>
  </defs>
  <g id="그룹_1342" data-name="그룹 1342" transform="translate(-394.903 -1019.004)">
    <g id="그룹_1340" data-name="그룹 1340">
      <g transform="matrix(1, 0, 0, 1, 394.9, 1019)" filter="url(#타원_183)">
        <circle id="타원_183-2" data-name="타원 183" cx="13.498" cy="13.498" r="13.498" transform="translate(1 1)" fill="#e37e13"/>
      </g>
    </g>
    <g id="그룹_1341" data-name="그룹 1341">
      <path id="패스_8537" data-name="패스 8537" d="M404.859,1038.6l1.3-1.756a4.438,4.438,0,0,0,3.114,1.434c1.416,0,2.378-.7,2.378-1.944,0-1.378-.811-2.227-3.85-2.227v-2c2.567,0,3.4-.887,3.4-2.132a1.67,1.67,0,0,0-1.869-1.756,3.99,3.99,0,0,0-2.643,1.246l-1.415-1.7a6.2,6.2,0,0,1,4.19-1.717c2.7,0,4.53,1.321,4.53,3.718a3.309,3.309,0,0,1-2.341,3.19v.094a3.49,3.49,0,0,1,2.794,3.435c0,2.568-2.246,4.059-4.907,4.059A5.941,5.941,0,0,1,404.859,1038.6Z" fill="#fff"/>
    </g>
  </g>
</svg>
