<svg xmlns="http://www.w3.org/2000/svg" xmlns:xlink="http://www.w3.org/1999/xlink" width="1154" height="811" viewBox="0 0 1154 811">
  <defs>
    <linearGradient id="linear-gradient" x1="0.5" x2="0.5" y2="1" gradientUnits="objectBoundingBox">
      <stop offset="0" stop-color="#1b1623"/>
      <stop offset="1" stop-color="#433754"/>
    </linearGradient>
    <filter id="패스_252" x="0" y="0" width="1154" height="811" filterUnits="userSpaceOnUse">
      <feOffset dx="7" input="SourceAlpha"/>
      <feGaussianBlur stdDeviation="3" result="blur"/>
      <feFlood flood-opacity="0.161"/>
      <feComposite operator="in" in2="blur"/>
      <feComposite in="SourceGraphic"/>
    </filter>
  </defs>
  <g id="그룹_703" data-name="그룹 703" transform="translate(-390 -178)">
    <g transform="matrix(1, 0, 0, 1, 390, 178)" filter="url(#패스_252)">
      <path id="패스_252-2" data-name="패스 252" d="M0,0H1136V793H0Z" transform="translate(2 9)" fill="url(#linear-gradient)"/>
    </g>
    <path id="패스_367" data-name="패스 367" d="M1405.636,1556.1l-.1-14.642-19.866-4.075a72.916,72.916,0,0,0-4.259-15.77l15.151-13.815-7.406-12.631-19.535,6.5a73.823,73.823,0,0,0-11.452-11.083l6.385-20.08-12.73-7.234-14.224,16.023a72.981,72.981,0,0,0-14.691-3.531l-4.725-21.552-14.641.1L1299,1476.459a72.809,72.809,0,0,0-13.454,3.991l-15.66-17.173-12.631,7.406,7.51,22.568a73.893,73.893,0,0,0-9.013,9.4l-23.16-7.363-7.235,12.73,18.382,16.318a72.837,72.837,0,0,0-3.058,11.975l-24.382,5.345.1,14.642,24.376,5a72.9,72.9,0,0,0,3.1,11.786l-18.5,16.872,7.4,12.631,23.321-7.758a73.921,73.921,0,0,0,8.72,9.029l-7.438,23.392,12.729,7.237,15.754-17.747a72.887,72.887,0,0,0,12.848,3.823l5.038,22.981,14.641-.1,4.546-22.155a72.97,72.97,0,0,0,14.063-3.326l15.05,16.506,12.632-7.407L1357.9,1606.7a73.9,73.9,0,0,0,11.177-10.679l20.264,6.443,7.236-12.729-15.4-13.672a72.881,72.881,0,0,0,4.357-15.561Zm-136.793-7.27a44.242,44.242,0,1,1,44.536,43.946A44.243,44.243,0,0,1,1268.843,1548.826Z" transform="translate(119.704 -706.704)" fill="#fff" opacity="0.03"/>
    <path id="패스_366" data-name="패스 366" d="M382.191,1601.253,410,1595.159l-.136-20.256-27.482-5.638a100.859,100.859,0,0,0-5.892-21.815l20.959-19.111L387.2,1510.864l-27.025,8.992a102.169,102.169,0,0,0-15.842-15.333l8.833-27.779-17.611-10.008L315.881,1488.9a100.96,100.96,0,0,0-20.323-4.885l-6.536-29.814-10.022.068v69.3c.848-.041,1.7-.076,2.554-.082a61.206,61.206,0,1,1,.82,122.409c-1.132.008-2.256-.021-3.374-.073v70.246l10.3-.069,6.289-30.649a100.89,100.89,0,0,0,19.454-4.6l20.82,22.834,17.475-10.247-9.375-28.174a102.2,102.2,0,0,0,15.462-14.773l28.032,8.912,10.01-17.61-21.307-18.913A100.856,100.856,0,0,0,382.191,1601.253Z" transform="translate(-743.225 1259) rotate(-90)" fill="#fff" opacity="0.03"/>
    <path id="패스_7709" data-name="패스 7709" d="M335.887,1535.269l15.33-3.36-.075-11.167-15.15-3.108a55.6,55.6,0,0,0-3.248-12.026l11.554-10.536-5.648-9.633-14.9,4.957a56.323,56.323,0,0,0-8.733-8.453l4.87-15.314-9.709-5.517-10.848,12.22a55.67,55.67,0,0,0-11.2-2.693l-3.6-16.436-5.525.037v38.2c.467-.022.936-.042,1.408-.045a33.742,33.742,0,1,1,.452,67.482c-.624,0-1.244-.012-1.86-.04v38.725l5.68-.038,3.467-16.9a55.611,55.611,0,0,0,10.725-2.536l11.478,12.588,9.634-5.649-5.168-15.531a56.332,56.332,0,0,0,8.524-8.144l15.454,4.913,5.518-9.708-11.746-10.426A55.6,55.6,0,0,0,335.887,1535.269Z" transform="translate(2790.204 -91.556) rotate(90)" fill="#fff" opacity="0.03"/>
    <path id="패스_364" data-name="패스 364" d="M448.676,1696l45.726-10.021-.223-33.307-45.188-9.27a165.818,165.818,0,0,0-9.688-35.871l34.463-31.425-16.847-28.732-44.436,14.786a167.987,167.987,0,0,0-26.049-25.212l14.524-45.677L372,1474.812l-32.356,36.447a166.013,166.013,0,0,0-33.417-8.031L295.48,1454.2l-16.48.112v113.945c1.394-.068,2.791-.126,4.2-.135a100.641,100.641,0,0,1,1.348,201.277c-1.862.013-3.709-.035-5.547-.121v115.5l16.941-.114,10.341-50.4a165.973,165.973,0,0,0,31.988-7.565l34.234,37.545,28.734-16.847-15.415-46.326a168.086,168.086,0,0,0,25.424-24.292l46.094,14.654,16.46-28.955-35.035-31.1A165.831,165.831,0,0,0,448.676,1696Z" transform="translate(113 -1159.495)" fill="#fff" opacity="0.03"/>
    <g id="패스_7837" data-name="패스 7837" transform="translate(453 246)" fill="none">
      <path d="M0,0H1014V676.5H0Z" stroke="none"/>
      <path d="M 0.20001220703125 0.20001220703125 L 0.20001220703125 676.2999877929688 L 1013.799987792969 676.2999877929688 L 1013.799987792969 0.20001220703125 L 0.20001220703125 0.20001220703125 M 0 0 L 1014 0 L 1014 676.5 L 0 676.5 L 0 0 Z" stroke="none" fill="#fff"/>
    </g>
  </g>
</svg>
