<svg xmlns="http://www.w3.org/2000/svg" width="35.617" height="35.618" viewBox="0 0 35.617 35.618"><g id="config" data-name="그룹 210" transform="translate(0)"><path id="config" data-name="패스 250" d="M757.742,981.847a3.113,3.113,0,0,0-3.086-3.086,3.086,3.086,0,0,0,0,6.171,3.113,3.113,0,0,0,3.086-3.085Z" transform="translate(-736.849 -964.037)" fill="#cecece" fill-rule="evenodd"/><path id="config" data-name="패스 251" d="M739.41,980.615l4.279-.84a10.825,10.825,0,0,1,1.051-2.454l-2.524-3.646a.954.954,0,0,1,.141-1.123l3.014-3.085a.859.859,0,0,1,1.122-.07l3.646,2.455a16.749,16.749,0,0,1,2.594-1.053l.771-4.276a.987.987,0,0,1,.912-.7h4.277a.99.99,0,0,1,.912.7l.77,4.347a10.516,10.516,0,0,1,2.453.982l3.577-2.455a.953.953,0,0,1,1.122.14l3.086,3.085a.953.953,0,0,1,.139,1.122l-2.524,3.576a15.019,15.019,0,0,1,1.051,2.454l4.278.84a.834.834,0,0,1,.7.842V985.8a.831.831,0,0,1-.7.842l-4.278.842a15.049,15.049,0,0,1-1.051,2.454l2.454,3.574a.858.858,0,0,1-.141,1.122l-3.014,3.086a.852.852,0,0,1-1.122.071l-3.577-2.384a15.088,15.088,0,0,1-2.453.982l-.77,4.347a.988.988,0,0,1-.912.7h-4.348a.972.972,0,0,1-.841-.7l-.771-4.277a13.67,13.67,0,0,1-2.524-1.051l-3.647,2.453a.852.852,0,0,1-1.122-.069l-3.084-3.086a.943.943,0,0,1-.07-1.122l2.453-3.575a19.267,19.267,0,0,1-1.051-2.524l-4.279-.842a.894.894,0,0,1-.769-.842v-4.347a.9.9,0,0,1,.769-.842Zm17.039,10.448a7.432,7.432,0,1,0-7.43-7.432,7.435,7.435,0,0,0,7.43,7.432Z" transform="translate(-738.641 -965.821)" fill="#cecece" fill-rule="evenodd"/></g></svg>              