<svg xmlns="http://www.w3.org/2000/svg" xmlns:xlink="http://www.w3.org/1999/xlink" width="265.516" height="20.583" viewBox="0 0 265.516 20.583">
  <defs>
    <linearGradient id="linear-gradient" x1="0.5" y1="0.988" x2="0.5" y2="0.039" gradientUnits="objectBoundingBox">
      <stop offset="0" stop-color="#adbfc8"/>
      <stop offset="1" stop-color="#6c6c6d"/>
    </linearGradient>
    <filter id="사각형_522" x="0" y="6.069" width="265.516" height="14.514" filterUnits="userSpaceOnUse">
      <feOffset input="SourceAlpha"/>
      <feGaussianBlur stdDeviation="1" result="blur"/>
      <feFlood flood-color="#fff"/>
      <feComposite operator="in" in2="blur"/>
      <feComposite in="SourceGraphic"/>
    </filter>
  </defs>
  <g id="그룹_897" data-name="그룹 897" transform="translate(-691 -891.041)">
    <g transform="matrix(1, 0, 0, 1, 691, 891.04)" filter="url(#사각형_522)">
      <rect id="사각형_522-2" data-name="사각형 522" width="259.516" height="8.514" rx="4.257" transform="translate(3 9.07)" fill="url(#linear-gradient)"/>
    </g>
    <path id="패스_8291" data-name="패스 8291" d="M1031.677,1176.042a.526.526,0,0,0-.526.526v5.382a.526.526,0,0,0,1.052,0v-5.382A.526.526,0,0,0,1031.677,1176.042Z" transform="translate(-330.667 -285.001)" fill="#e3e2e2"/>
    <path id="패스_8292" data-name="패스 8292" d="M1118.553,1176.042a.526.526,0,0,0-.526.526v5.382a.526.526,0,0,0,1.052,0v-5.382A.526.526,0,0,0,1118.553,1176.042Z" transform="translate(-390.083 -285.001)" fill="#e3e2e2"/>
    <path id="패스_8293" data-name="패스 8293" d="M1205.43,1176.042a.526.526,0,0,0-.526.526v5.382a.526.526,0,1,0,1.051,0v-5.382A.526.526,0,0,0,1205.43,1176.042Z" transform="translate(-449.499 -285.001)" fill="#e3e2e2"/>
    <path id="패스_8294" data-name="패스 8294" d="M1292.306,1176.042a.526.526,0,0,0-.526.526v5.382a.526.526,0,0,0,1.052,0v-5.382A.526.526,0,0,0,1292.306,1176.042Z" transform="translate(-508.915 -285.001)" fill="#e3e2e2"/>
    <path id="패스_8295" data-name="패스 8295" d="M1379.182,1176.042a.526.526,0,0,0-.526.526v5.382a.526.526,0,0,0,1.052,0v-5.382A.526.526,0,0,0,1379.182,1176.042Z" transform="translate(-568.331 -285.001)" fill="#e3e2e2"/>
    <path id="패스_8296" data-name="패스 8296" d="M1466.059,1176.042a.526.526,0,0,0-.526.526v5.382a.526.526,0,1,0,1.051,0v-5.382A.526.526,0,0,0,1466.059,1176.042Z" transform="translate(-627.747 -285.001)" fill="#e3e2e2"/>
    <path id="패스_8297" data-name="패스 8297" d="M1552.935,1176.042a.526.526,0,0,0-.526.526v5.382a.526.526,0,1,0,1.052,0v-5.382A.526.526,0,0,0,1552.935,1176.042Z" transform="translate(-687.163 -285.001)" fill="#e3e2e2"/>
    <path id="패스_8298" data-name="패스 8298" d="M1639.811,1176.042a.526.526,0,0,0-.526.526v5.382a.526.526,0,0,0,1.052,0v-5.382A.526.526,0,0,0,1639.811,1176.042Z" transform="translate(-746.578 -285.001)" fill="#e3e2e2"/>
    <path id="패스_8299" data-name="패스 8299" d="M1726.688,1176.042a.526.526,0,0,0-.526.526v5.382a.526.526,0,1,0,1.051,0v-5.382A.526.526,0,0,0,1726.688,1176.042Z" transform="translate(-805.995 -285.001)" fill="#e3e2e2"/>
    <path id="패스_8300" data-name="패스 8300" d="M1811.688,1176.042a.526.526,0,0,0-.526.526v5.382a.526.526,0,1,0,1.051,0v-5.382A.526.526,0,0,0,1811.688,1176.042Z" transform="translate(-864.127 -285.001)" fill="#e3e2e2"/>
  </g>
</svg>