<svg xmlns="http://www.w3.org/2000/svg" xmlns:xlink="http://www.w3.org/1999/xlink" width="265.261" height="22.506" viewBox="0 0 265.261 22.506">
  <defs>
    <linearGradient id="linear-gradient" x1="0.5" y1="0.988" x2="0.5" y2="0.039" gradientUnits="objectBoundingBox">
      <stop offset="0" stop-color="#adbfc8"/>
      <stop offset="1" stop-color="#6c6c6d"/>
    </linearGradient>
    <filter id="사각형_110" x="0" y="7.061" width="265.261" height="15.445" filterUnits="userSpaceOnUse">
      <feOffset input="SourceAlpha"/>
      <feGaussianBlur stdDeviation="1" result="blur"/>
      <feFlood flood-color="#fff"/>
      <feComposite operator="in" in2="blur"/>
      <feComposite in="SourceGraphic"/>
    </filter>
  </defs>
  <g id="그룹_282" data-name="그룹 282" transform="translate(3)">
    <g transform="matrix(1, 0, 0, 1, -3, 0)" filter="url(#사각형_110)">
      <rect id="사각형_110-2" data-name="사각형 110" width="259.261" height="9.445" rx="4.722" transform="translate(3 10.06)" fill="url(#linear-gradient)"/>
    </g>
    <path id="패스_345" data-name="패스 345" d="M1031.734,1176.042a.583.583,0,0,0-.583.583v5.971a.583.583,0,0,0,1.167,0v-5.971A.584.584,0,0,0,1031.734,1176.042Z" transform="translate(-1023.958 -1176.042)" fill="#e3e2e2"/>
    <path id="패스_346" data-name="패스 346" d="M1118.61,1176.042a.584.584,0,0,0-.583.583v5.971a.583.583,0,0,0,1.167,0v-5.971A.583.583,0,0,0,1118.61,1176.042Z" transform="translate(-1080.371 -1176.042)" fill="#e3e2e2"/>
    <path id="패스_347" data-name="패스 347" d="M1205.487,1176.042a.583.583,0,0,0-.583.583v5.971a.583.583,0,1,0,1.166,0v-5.971A.583.583,0,0,0,1205.487,1176.042Z" transform="translate(-1136.784 -1176.042)" fill="#e3e2e2"/>
    <path id="패스_348" data-name="패스 348" d="M1292.363,1176.042a.583.583,0,0,0-.583.583v5.971a.583.583,0,0,0,1.167,0v-5.971A.584.584,0,0,0,1292.363,1176.042Z" transform="translate(-1193.196 -1176.042)" fill="#e3e2e2"/>
    <path id="패스_349" data-name="패스 349" d="M1379.24,1176.042a.583.583,0,0,0-.583.583v5.971a.583.583,0,0,0,1.167,0v-5.971A.583.583,0,0,0,1379.24,1176.042Z" transform="translate(-1249.609 -1176.042)" fill="#e3e2e2"/>
    <path id="패스_350" data-name="패스 350" d="M1466.116,1176.042a.583.583,0,0,0-.583.583v5.971a.583.583,0,1,0,1.166,0v-5.971A.583.583,0,0,0,1466.116,1176.042Z" transform="translate(-1306.022 -1176.042)" fill="#e3e2e2"/>
    <path id="패스_351" data-name="패스 351" d="M1552.992,1176.042a.583.583,0,0,0-.583.583v5.971a.583.583,0,1,0,1.167,0v-5.971A.583.583,0,0,0,1552.992,1176.042Z" transform="translate(-1362.434 -1176.042)" fill="#e3e2e2"/>
    <path id="패스_352" data-name="패스 352" d="M1639.869,1176.042a.584.584,0,0,0-.583.583v5.971a.583.583,0,0,0,1.167,0v-5.971A.583.583,0,0,0,1639.869,1176.042Z" transform="translate(-1418.847 -1176.042)" fill="#e3e2e2"/>
    <path id="패스_353" data-name="패스 353" d="M1726.745,1176.042a.583.583,0,0,0-.583.583v5.971a.583.583,0,1,0,1.166,0v-5.971A.583.583,0,0,0,1726.745,1176.042Z" transform="translate(-1475.26 -1176.042)" fill="#e3e2e2"/>
  </g>
</svg>
