<svg xmlns="http://www.w3.org/2000/svg" width="126.191" height="83.587" viewBox="0 0 126.191 83.587">
  <g id="그룹_996" data-name="그룹 996" transform="translate(0 0)">
    <rect id="사각형_591" data-name="사각형 591" width="115.53" height="5.555" transform="translate(6.044 78.032)" fill="#fafbfd"/>
    <path id="패스_8430" data-name="패스 8430" d="M2340.191,2006.946l1.939,2.742-38.885,26.747-23.254-32.815-52.621,36.663.013,5.935,51.493-35.865,23.236,32.6,42.813-29.308,1.953,2.762,6.682-11.851Z" transform="translate(-2227.371 -2003.62)" fill="#fafbfd"/>
    <path id="패스_8431" data-name="패스 8431" d="M2246.224,2126.292h19.255v-45.07l-19.255,13.785Z" transform="translate(-2239.32 -2052.802)" fill="#fafbfd"/>
    <path id="패스_8432" data-name="패스 8432" d="M2515.809,2048.383l-17.213,12.17v44.927h19.255V2051.27Z" transform="translate(-2399.267 -2031.989)" fill="#fafbfd"/>
    <path id="패스_8433" data-name="패스 8433" d="M2435.5,2098.947v29.95h19.255v-43.565l-19.2,13.576Z" transform="translate(-2359.28 -2055.407)" fill="#fafbfd"/>
    <path id="패스_8434" data-name="패스 8434" d="M2309.317,2053.57v46.449h19.255v-60.252Z" transform="translate(-2279.307 -2026.529)" fill="#fafbfd"/>
    <path id="패스_8435" data-name="패스 8435" d="M2372.409,2047.4v57.455h19.255v-29.481Z" transform="translate(-2319.293 -2031.369)" fill="#fafbfd"/>
  </g>
</svg>
