<svg xmlns="http://www.w3.org/2000/svg" width="74.841" height="83.552" viewBox="0 0 74.841 83.552">
  <g id="그룹_1009" data-name="그룹 1009" transform="translate(-2334.85 -1722.277)">
    <g id="그룹_1007" data-name="그룹 1007" transform="translate(2352.38 1722.277)">
      <path id="패스_8444" data-name="패스 8444" d="M2457.146,1722.277h-1.286a5.835,5.835,0,0,0-5.835,5.834v13.347a5.834,5.834,0,0,0,5.835,5.834h1.286a5.834,5.834,0,0,0,5.834-5.834v-13.347A5.834,5.834,0,0,0,2457.146,1722.277Zm4.047,18.681a4.225,4.225,0,0,1-4.225,4.225h-.932a4.225,4.225,0,0,1-4.224-4.225v-12.346a4.224,4.224,0,0,1,4.224-4.225h.932a4.225,4.225,0,0,1,4.225,4.225Z" transform="translate(-2419.74 -1722.277)" fill="#fafbfd"/>
      <g id="그룹_1006" data-name="그룹 1006" transform="translate(0 31.993)">
        <path id="패스_8445" data-name="패스 8445" d="M2395.238,1834.127l-17.38-19.178a3.015,3.015,0,0,1,.21-4.259h0a3.015,3.015,0,0,1,4.259.209l12.657,13.966,19.786-24.409a3.015,3.015,0,0,1,4.241-.444h0a3.015,3.015,0,0,1,.444,4.241Z" transform="translate(-2377.076 -1799.341)" fill="#fafbfd"/>
      </g>
    </g>
    <path id="패스_8446" data-name="패스 8446" d="M2374.829,1722.277h-1.286a5.834,5.834,0,0,0-5.834,5.834v13.347a5.834,5.834,0,0,0,5.834,5.834h1.286a5.834,5.834,0,0,0,5.834-5.834v-13.347A5.834,5.834,0,0,0,2374.829,1722.277Zm4.048,18.681a4.225,4.225,0,0,1-4.225,4.225h-.931a4.225,4.225,0,0,1-4.225-4.225v-12.346a4.225,4.225,0,0,1,4.225-4.225h.931a4.225,4.225,0,0,1,4.225,4.225Z" transform="translate(-19.218)" fill="#fafbfd"/>
    <g id="그룹_1008" data-name="그룹 1008" transform="translate(2334.85 1730.988)">
      <path id="패스_8447" data-name="패스 8447" d="M2419.168,1755.321a4.176,4.176,0,0,1-.575-2.091v-9.97H2393.8v9.97a4.181,4.181,0,0,1-.575,2.091Z" transform="translate(-2368.991 -1743.26)" fill="#fafbfd"/>
      <path id="패스_8448" data-name="패스 8448" d="M2393.832,1743.26v9.97a4.178,4.178,0,0,1-.574,2.091h9.732V1811.4h-61.439v-56.079h9.3a4.179,4.179,0,0,1-.575-2.091v-9.97H2334.85v74.84h74.841v-74.84Z" transform="translate(-2334.85 -1743.26)" fill="#fafbfd"/>
    </g>
  </g>
</svg>
