<svg id="그룹_1004" data-name="그룹 1004" xmlns="http://www.w3.org/2000/svg" width="93.822" height="93.822" viewBox="0 0 93.822 93.822">
  <path id="패스_8441" data-name="패스 8441" d="M56.911,10a46.911,46.911,0,1,0,46.911,46.911A46.907,46.907,0,0,0,56.911,10Zm0,89.562A42.651,42.651,0,1,1,99.562,56.911,42.656,42.656,0,0,1,56.911,99.562Z" transform="translate(-10 -10)" fill="#fff"/>
  <path id="패스_8442" data-name="패스 8442" d="M442.4,209.41a5.61,5.61,0,1,0,5.61-5.61A5.606,5.606,0,0,0,442.4,209.41Z" transform="translate(-401.003 -185.246)" fill="#fff"/>
  <path id="패스_8443" data-name="패스 8443" d="M434.82,363.843V360.1H423.6v3.743h3.743v31.813H423.6V399.4h14.964v-3.743H434.82V363.843Z" transform="translate(-384.003 -326.582)" fill="#fff"/>
</svg>
