<svg xmlns="http://www.w3.org/2000/svg" width="77.718" height="30.462" viewBox="0 0 77.718 30.462">
  <g id="그룹_704" data-name="그룹 704" transform="translate(-271 -55)" opacity="0.5">
    <g id="그룹_79" data-name="그룹 79" transform="translate(271 55)">
      <circle id="타원_17" data-name="타원 17" cx="10.372" cy="10.372" r="10.372" transform="translate(3.365 2.2)" fill="none" stroke="#1e1e1e" stroke-width="0.6"/>
      <circle id="타원_18" data-name="타원 18" cx="7.785" cy="7.785" r="7.785" transform="translate(5.952 4.787)" fill="none" stroke="#1e1e1e" stroke-width="0.6"/>
      <circle id="타원_19" data-name="타원 19" cx="5.149" cy="5.149" r="5.149" transform="translate(8.588 7.423)" fill="none" stroke="#161717" stroke-width="0.6"/>
      <path id="패스_83" data-name="패스 83" d="M79.68,128.813h-5.1l6.691-15.9h5.1Z" transform="translate(-56.512 -104.446)" fill="#291a17"/>
      <path id="패스_84" data-name="패스 84" d="M101.454,113.016h5.77l-8.622,7.7,2.29,8.128H95.324l-1.751-8.285Z" transform="translate(-66.913 -104.501)" fill="#291a17"/>
      <path id="패스_85" data-name="패스 85" d="M129.367,113.716l-1.1,3.548s-.741-.809-3.458-.763-2.425,2.357-1.594,3.008,2.56,2.852,2.492,4.49a6.173,6.173,0,0,1-4,4.827,17.554,17.554,0,0,1-8.105.337l1.122-3.794a5.214,5.214,0,0,0,3.638,1.325c2.088-.157,2.582-.988,2.38-2.088a8.106,8.106,0,0,0-2.312-3.435c-.943-.921-.831-3.143.673-5.232s3.907-2.312,6.107-2.47A17.029,17.029,0,0,1,129.367,113.716Z" transform="translate(-77.886 -104.728)" fill="#291a17"/>
      <path id="패스_86" data-name="패스 86" d="M187.378,113.716l-1.1,3.548s-.741-.809-3.458-.763-2.425,2.357-1.594,3.008,2.559,2.852,2.492,4.49a6.173,6.173,0,0,1-4,4.827,17.554,17.554,0,0,1-8.105.337l1.122-3.794a5.214,5.214,0,0,0,3.638,1.325c2.088-.157,2.582-.988,2.38-2.088a8.112,8.112,0,0,0-2.313-3.435c-.943-.921-.831-3.143.673-5.232s3.907-2.312,6.107-2.47A17.035,17.035,0,0,1,187.378,113.716Z" transform="translate(-109.661 -104.728)" fill="#291a17"/>
      <path id="패스_87" data-name="패스 87" d="M155.077,125.8h-7.109l5.425-12.888h-5.1l-6.691,15.9h5.1v0l6.757.019Z" transform="translate(-93.222 -104.446)" fill="#291a17"/>
      <g id="그룹_78" data-name="그룹 78" transform="translate(17.996 26.264)">
        <path id="패스_88" data-name="패스 88" d="M75.277,154.262l-.5.615v.756h-.363v-3.077h.363v1.775l1.421-1.775h.453l-1.141,1.414,1.221,1.663h-.464Z" transform="translate(-74.416 -152.423)" fill="#1a1311"/>
        <path id="패스_89" data-name="패스 89" d="M81.145,154.533a1.012,1.012,0,0,1,.361.413,1.407,1.407,0,0,1,0,1.179,1.009,1.009,0,0,1-.361.413.974.974,0,0,1-1.039,0,1.025,1.025,0,0,1-.361-.413,1.39,1.39,0,0,1,0-1.179,1.028,1.028,0,0,1,.361-.413.974.974,0,0,1,1.039,0Zm-.862.305a.713.713,0,0,0-.235.288,1.033,1.033,0,0,0,0,.819.714.714,0,0,0,.235.288.611.611,0,0,0,.686,0,.693.693,0,0,0,.235-.288,1.054,1.054,0,0,0,0-.819.691.691,0,0,0-.235-.288.609.609,0,0,0-.686,0Z" transform="translate(-77.263 -153.423)" fill="#1a1311"/>
        <path id="패스_90" data-name="패스 90" d="M85.451,154.437v.338a.758.758,0,0,1,.265-.271.8.8,0,0,1,.448-.121.767.767,0,0,1,.27.038v.377a.641.641,0,0,0-.294-.062.62.62,0,0,0-.354.105.725.725,0,0,0-.246.281.817.817,0,0,0-.088.374v1.137H85.1v-2.2Z" transform="translate(-80.265 -153.423)" fill="#1a1311"/>
        <path id="패스_91" data-name="패스 91" d="M88.856,156.538a1.006,1.006,0,0,1-.354-.413,1.421,1.421,0,0,1,0-1.179,1.009,1.009,0,0,1,.354-.413.941.941,0,0,1,1.02,0,1,1,0,0,1,.353.413,1.346,1.346,0,0,1,.126.589,1.286,1.286,0,0,1-.007.161H88.73a.774.774,0,0,0,.2.473.575.575,0,0,0,.434.184.663.663,0,0,0,.348-.09.475.475,0,0,0,.206-.229h.363a.868.868,0,0,1-.332.471.96.96,0,0,1-.584.182A.9.9,0,0,1,88.856,156.538ZM89.8,154.9a.612.612,0,0,0-.872,0,.778.778,0,0,0-.2.474h1.275A.789.789,0,0,0,89.8,154.9Z" transform="translate(-82.061 -153.423)" fill="#1a1311"/>
        <path id="패스_92" data-name="패스 92" d="M94,156.538a1.015,1.015,0,0,1-.351-.415,1.408,1.408,0,0,1,0-1.175,1.018,1.018,0,0,1,.351-.415.873.873,0,0,1,.5-.15.823.823,0,0,1,.436.112.7.7,0,0,1,.266.269v-.327h.356v2.2h-.356v-.326a.706.706,0,0,1-.266.268.823.823,0,0,1-.436.112A.873.873,0,0,1,94,156.538Zm.882-.3a.714.714,0,0,0,.24-.288,1.013,1.013,0,0,0,0-.819.713.713,0,0,0-.24-.288.605.605,0,0,0-.351-.106.588.588,0,0,0-.344.1.678.678,0,0,0-.233.288,1.062,1.062,0,0,0,0,.822.683.683,0,0,0,.233.288.591.591,0,0,0,.344.1A.605.605,0,0,0,94.886,156.233Z" transform="translate(-84.883 -153.423)" fill="#1a1311"/>
        <path id="패스_93" data-name="패스 93" d="M102.848,152.513a.977.977,0,0,1,.387.328.93.93,0,0,1,.162.477h-.373a.616.616,0,0,0-.227-.415.772.772,0,0,0-.51-.162.834.834,0,0,0-.5.133.408.408,0,0,0-.181.344.4.4,0,0,0,.086.263.68.68,0,0,0,.268.182,3.106,3.106,0,0,0,.493.15,1.553,1.553,0,0,1,.728.34.764.764,0,0,1,.226.571.784.784,0,0,1-.145.47.939.939,0,0,1-.4.311,1.388,1.388,0,0,1-.56.109,1.3,1.3,0,0,1-.576-.123.994.994,0,0,1-.576-.864h.374a.655.655,0,0,0,.244.461.854.854,0,0,0,.558.176.976.976,0,0,0,.366-.065.579.579,0,0,0,.253-.185.436.436,0,0,0,.09-.269.442.442,0,0,0-.086-.28.664.664,0,0,0-.268-.19,3,3,0,0,0-.5-.151,1.571,1.571,0,0,1-.714-.323.752.752,0,0,1-.23-.584.716.716,0,0,1,.136-.436.867.867,0,0,1,.379-.286,1.425,1.425,0,0,1,.55-.1A1.228,1.228,0,0,1,102.848,152.513Z" transform="translate(-89.061 -152.334)" fill="#1a1311"/>
        <path id="패스_94" data-name="패스 94" d="M107.915,154.042h-.439v1.847h-.356v-1.847h-.439v-.35h.439v-.668h.356v.668h.439Z" transform="translate(-92.089 -152.678)" fill="#1a1311"/>
        <path id="패스_95" data-name="패스 95" d="M110.324,156.538a1.019,1.019,0,0,1-.351-.415,1.412,1.412,0,0,1,0-1.175,1.022,1.022,0,0,1,.351-.415.873.873,0,0,1,.5-.15.824.824,0,0,1,.436.112.7.7,0,0,1,.266.269v-.327h.356v2.2h-.356v-.326a.706.706,0,0,1-.266.268.824.824,0,0,1-.436.112A.873.873,0,0,1,110.324,156.538Zm.882-.3a.718.718,0,0,0,.24-.288,1.013,1.013,0,0,0,0-.819.716.716,0,0,0-.24-.288.606.606,0,0,0-.351-.106.588.588,0,0,0-.344.1.675.675,0,0,0-.233.288,1.062,1.062,0,0,0,0,.822.679.679,0,0,0,.233.288.591.591,0,0,0,.344.1A.606.606,0,0,0,111.206,156.233Z" transform="translate(-93.822 -153.423)" fill="#1a1311"/>
        <path id="패스_96" data-name="패스 96" d="M115.942,154.437v.334a.741.741,0,0,1,.251-.269.73.73,0,0,1,.42-.119.739.739,0,0,1,.413.119.785.785,0,0,1,.282.336,1.2,1.2,0,0,1,.1.509v1.287h-.356v-1.217a.824.824,0,0,0-.137-.509.45.45,0,0,0-.379-.179.483.483,0,0,0-.3.106.718.718,0,0,0-.213.283.936.936,0,0,0-.078.38v1.137h-.356v-2.2Z" transform="translate(-96.966 -153.423)" fill="#1a1311"/>
        <path id="패스_97" data-name="패스 97" d="M120.979,155.421a1.012,1.012,0,0,1-.351-.415,1.408,1.408,0,0,1,0-1.175,1.015,1.015,0,0,1,.351-.415.87.87,0,0,1,.5-.15.823.823,0,0,1,.436.112.7.7,0,0,1,.266.269v-1.3h.356v3.173h-.356v-.326a.706.706,0,0,1-.266.268.823.823,0,0,1-.436.112A.87.87,0,0,1,120.979,155.421Zm.881-.3a.714.714,0,0,0,.24-.288,1.013,1.013,0,0,0,0-.819.713.713,0,0,0-.24-.288.605.605,0,0,0-.351-.106.588.588,0,0,0-.344.1.678.678,0,0,0-.233.288,1.062,1.062,0,0,0,0,.822.682.682,0,0,0,.233.288.591.591,0,0,0,.344.1A.6.6,0,0,0,121.861,155.116Z" transform="translate(-99.658 -152.307)" fill="#1a1311"/>
        <path id="패스_98" data-name="패스 98" d="M126.491,156.538a1.015,1.015,0,0,1-.351-.415,1.412,1.412,0,0,1,0-1.175,1.019,1.019,0,0,1,.351-.415.871.871,0,0,1,.5-.15.823.823,0,0,1,.436.112.7.7,0,0,1,.266.269v-.327h.356v2.2h-.356v-.326a.706.706,0,0,1-.266.268.823.823,0,0,1-.436.112A.871.871,0,0,1,126.491,156.538Zm.881-.3a.711.711,0,0,0,.24-.288,1.013,1.013,0,0,0,0-.819.709.709,0,0,0-.24-.288.605.605,0,0,0-.351-.106.588.588,0,0,0-.344.1.682.682,0,0,0-.233.288,1.062,1.062,0,0,0,0,.822.686.686,0,0,0,.233.288.591.591,0,0,0,.344.1A.605.605,0,0,0,127.372,156.233Z" transform="translate(-102.677 -153.423)" fill="#1a1311"/>
        <path id="패스_99" data-name="패스 99" d="M132.108,154.437v.338a.758.758,0,0,1,.265-.271.8.8,0,0,1,.447-.121.765.765,0,0,1,.27.038v.377a.64.64,0,0,0-.294-.062.621.621,0,0,0-.355.105.724.724,0,0,0-.245.281.817.817,0,0,0-.088.374v1.137h-.356v-2.2Z" transform="translate(-105.821 -153.423)" fill="#1a1311"/>
        <path id="패스_100" data-name="패스 100" d="M135.51,155.421a1.019,1.019,0,0,1-.351-.415,1.412,1.412,0,0,1,0-1.175,1.022,1.022,0,0,1,.351-.415.873.873,0,0,1,.5-.15.824.824,0,0,1,.436.112.7.7,0,0,1,.266.269v-1.3h.356v3.173h-.356v-.326a.707.707,0,0,1-.266.268.824.824,0,0,1-.436.112A.873.873,0,0,1,135.51,155.421Zm.882-.3a.717.717,0,0,0,.24-.288,1.013,1.013,0,0,0,0-.819.716.716,0,0,0-.24-.288.606.606,0,0,0-.351-.106.588.588,0,0,0-.344.1.675.675,0,0,0-.233.288,1.063,1.063,0,0,0,0,.822.679.679,0,0,0,.233.288.591.591,0,0,0,.344.1A.606.606,0,0,0,136.392,155.116Z" transform="translate(-107.617 -152.307)" fill="#1a1311"/>
        <path id="패스_101" data-name="패스 101" d="M143.314,155.269h1.521v.365h-1.884v-3.077h.363Z" transform="translate(-111.955 -152.423)" fill="#1a1311"/>
        <path id="패스_102" data-name="패스 102" d="M148.084,156.538a1.012,1.012,0,0,1-.351-.415,1.408,1.408,0,0,1,0-1.175,1.015,1.015,0,0,1,.351-.415.87.87,0,0,1,.5-.15.823.823,0,0,1,.436.112.7.7,0,0,1,.266.269v-.327h.356v2.2h-.356v-.326a.7.7,0,0,1-.266.268.823.823,0,0,1-.436.112A.87.87,0,0,1,148.084,156.538Zm.881-.3a.714.714,0,0,0,.24-.288,1.013,1.013,0,0,0,0-.819.713.713,0,0,0-.24-.288.6.6,0,0,0-.351-.106.588.588,0,0,0-.344.1.678.678,0,0,0-.233.288,1.062,1.062,0,0,0,0,.822.683.683,0,0,0,.233.288.591.591,0,0,0,.344.1A.6.6,0,0,0,148.966,156.233Z" transform="translate(-114.505 -153.423)" fill="#1a1311"/>
        <path id="패스_103" data-name="패스 103" d="M154.435,154.465a.786.786,0,0,1,.309.227.547.547,0,0,1,.123.329h-.35a.286.286,0,0,0-.159-.227.708.708,0,0,0-.366-.088.68.68,0,0,0-.355.084.244.244,0,0,0-.14.208.259.259,0,0,0,.13.227,1.325,1.325,0,0,0,.479.138,1.269,1.269,0,0,1,.619.223.524.524,0,0,1,.187.422.571.571,0,0,1-.119.361.757.757,0,0,1-.323.237,1.2,1.2,0,0,1-.453.082,1.131,1.131,0,0,1-.456-.086.753.753,0,0,1-.309-.238.646.646,0,0,1-.126-.344h.349a.35.35,0,0,0,.161.244.669.669,0,0,0,.392.1.723.723,0,0,0,.384-.094.278.278,0,0,0,.152-.241.249.249,0,0,0-.14-.221,1.449,1.449,0,0,0-.486-.133,1.24,1.24,0,0,1-.6-.217.583.583,0,0,1-.078-.774.716.716,0,0,1,.306-.224,1.137,1.137,0,0,1,.435-.079A1.1,1.1,0,0,1,154.435,154.465Z" transform="translate(-117.528 -153.423)" fill="#1a1311"/>
        <path id="패스_104" data-name="패스 104" d="M158.323,156.538a1.006,1.006,0,0,1-.354-.413,1.421,1.421,0,0,1,0-1.179,1.009,1.009,0,0,1,.354-.413.941.941,0,0,1,1.02,0,1,1,0,0,1,.353.413,1.346,1.346,0,0,1,.126.589,1.4,1.4,0,0,1-.007.161H158.2a.774.774,0,0,0,.2.473.575.575,0,0,0,.434.184.663.663,0,0,0,.347-.09.477.477,0,0,0,.206-.229h.363a.871.871,0,0,1-.332.471.959.959,0,0,1-.584.182A.9.9,0,0,1,158.323,156.538Zm.946-1.638a.612.612,0,0,0-.872,0,.775.775,0,0,0-.2.474h1.276A.792.792,0,0,0,159.269,154.9Z" transform="translate(-120.111 -153.423)" fill="#1a1311"/>
        <path id="패스_105" data-name="패스 105" d="M163.578,154.437v.338a.758.758,0,0,1,.265-.271.8.8,0,0,1,.448-.121.769.769,0,0,1,.27.038v.377a.642.642,0,0,0-.294-.062.619.619,0,0,0-.354.105.725.725,0,0,0-.246.281.817.817,0,0,0-.088.374v1.137h-.356v-2.2Z" transform="translate(-123.059 -153.423)" fill="#1a1311"/>
        <path id="패스_106" data-name="패스 106" d="M170.543,152.513a.98.98,0,0,1,.387.328.939.939,0,0,1,.163.477h-.374a.615.615,0,0,0-.226-.415.772.772,0,0,0-.51-.162.834.834,0,0,0-.5.133.407.407,0,0,0-.181.344.4.4,0,0,0,.086.263.676.676,0,0,0,.268.182,3.092,3.092,0,0,0,.493.15,1.551,1.551,0,0,1,.727.34.762.762,0,0,1,.227.571.781.781,0,0,1-.145.47.939.939,0,0,1-.4.311,1.386,1.386,0,0,1-.56.109,1.3,1.3,0,0,1-.576-.123.992.992,0,0,1-.575-.864h.373a.657.657,0,0,0,.244.461.853.853,0,0,0,.558.176.98.98,0,0,0,.367-.065.576.576,0,0,0,.252-.185.434.434,0,0,0,.09-.269.445.445,0,0,0-.087-.28.669.669,0,0,0-.268-.19,2.987,2.987,0,0,0-.5-.151,1.572,1.572,0,0,1-.714-.323.753.753,0,0,1-.23-.584.714.714,0,0,1,.137-.436.859.859,0,0,1,.379-.286,1.421,1.421,0,0,1,.549-.1A1.228,1.228,0,0,1,170.543,152.513Z" transform="translate(-126.141 -152.334)" fill="#1a1311"/>
        <path id="패스_107" data-name="패스 107" d="M175.167,152.345v1.31a.741.741,0,0,1,.251-.269.729.729,0,0,1,.42-.119.737.737,0,0,1,.413.119.779.779,0,0,1,.282.336,1.2,1.2,0,0,1,.1.509v1.287h-.356V154.3a.824.824,0,0,0-.137-.509.45.45,0,0,0-.379-.179.482.482,0,0,0-.3.106.718.718,0,0,0-.213.283.929.929,0,0,0-.078.38v1.137h-.356v-3.173Z" transform="translate(-129.406 -152.307)" fill="#1a1311"/>
        <path id="패스_108" data-name="패스 108" d="M181.28,154.533a1.015,1.015,0,0,1,.361.413,1.407,1.407,0,0,1,0,1.179,1.012,1.012,0,0,1-.361.413.974.974,0,0,1-1.039,0,1.019,1.019,0,0,1-.361-.413,1.385,1.385,0,0,1,0-1.179,1.022,1.022,0,0,1,.361-.413.974.974,0,0,1,1.039,0Zm-.862.305a.705.705,0,0,0-.235.288,1.033,1.033,0,0,0,0,.819.707.707,0,0,0,.235.288.611.611,0,0,0,.686,0,.693.693,0,0,0,.235-.288,1.053,1.053,0,0,0,0-.819.691.691,0,0,0-.235-.288.609.609,0,0,0-.686,0Z" transform="translate(-132.111 -153.423)" fill="#1a1311"/>
        <path id="패스_109" data-name="패스 109" d="M186.531,154.533a1.015,1.015,0,0,1,.361.413,1.407,1.407,0,0,1,0,1.179,1.012,1.012,0,0,1-.361.413.974.974,0,0,1-1.039,0,1.019,1.019,0,0,1-.361-.413,1.385,1.385,0,0,1,0-1.179,1.022,1.022,0,0,1,.361-.413.974.974,0,0,1,1.039,0Zm-.862.305a.705.705,0,0,0-.235.288,1.028,1.028,0,0,0,0,.819.707.707,0,0,0,.235.288.611.611,0,0,0,.686,0,.693.693,0,0,0,.235-.288,1.054,1.054,0,0,0,0-.819.691.691,0,0,0-.235-.288.609.609,0,0,0-.686,0Z" transform="translate(-134.987 -153.423)" fill="#1a1311"/>
        <path id="패스_110" data-name="패스 110" d="M191.133,154.042h-.439v1.847h-.356v-1.847H189.9v-.35h.439v-.668h.356v.668h.439Z" transform="translate(-137.671 -152.678)" fill="#1a1311"/>
        <path id="패스_111" data-name="패스 111" d="M193.715,152.335a.294.294,0,0,1,0,.373.223.223,0,0,1-.171.075.218.218,0,0,1-.167-.075.292.292,0,0,1,0-.373.216.216,0,0,1,.167-.075A.221.221,0,0,1,193.715,152.335Zm-.348,3.141v-2.2h.356v2.2Z" transform="translate(-139.538 -152.26)" fill="#1a1311"/>
        <path id="패스_112" data-name="패스 112" d="M195.82,154.437v.334a.738.738,0,0,1,.251-.269.726.726,0,0,1,.42-.119.737.737,0,0,1,.413.119.783.783,0,0,1,.282.336,1.208,1.208,0,0,1,.1.509v1.287h-.356v-1.217a.824.824,0,0,0-.137-.509.45.45,0,0,0-.379-.179.481.481,0,0,0-.3.106.715.715,0,0,0-.213.283.936.936,0,0,0-.078.38v1.137h-.356v-2.2Z" transform="translate(-140.719 -153.423)" fill="#1a1311"/>
        <path id="패스_113" data-name="패스 113" d="M200.81,157.4a.946.946,0,0,1-.3-.559h.363a.527.527,0,0,0,.178.316.593.593,0,0,0,.4.123.561.561,0,0,0,.441-.19.741.741,0,0,0,.167-.509v-.3a.7.7,0,0,1-.266.269.826.826,0,0,1-.436.111.887.887,0,0,1-.5-.148,1.019,1.019,0,0,1-.35-.407,1.292,1.292,0,0,1-.128-.578,1.306,1.306,0,0,1,.128-.58,1.03,1.03,0,0,1,.35-.411.875.875,0,0,1,.5-.15.826.826,0,0,1,.436.112.7.7,0,0,1,.266.269v-.327h.356v2.147a1.147,1.147,0,0,1-.123.536.912.912,0,0,1-.342.369.952.952,0,0,1-.5.133A.911.911,0,0,1,200.81,157.4Zm.93-1.189a.7.7,0,0,0,.24-.284.985.985,0,0,0,0-.807.7.7,0,0,0-.24-.284.61.61,0,0,0-.351-.1.586.586,0,0,0-.344.1.678.678,0,0,0-.233.284,1.02,1.02,0,0,0,0,.807.683.683,0,0,0,.233.284.589.589,0,0,0,.344.1A.614.614,0,0,0,201.739,156.211Z" transform="translate(-143.411 -153.423)" fill="#1a1311"/>
      </g>
      <line id="선_3" data-name="선 3" x2="25.157" transform="translate(0 12.578)" fill="none" stroke="#291a17" stroke-width="0.6"/>
      <line id="선_4" data-name="선 4" y2="25.157" transform="translate(13.73)" fill="none" stroke="#291a17" stroke-width="0.6"/>
      <circle id="타원_20" data-name="타원 20" cx="1.614" cy="1.614" r="1.614" transform="translate(12.123 10.958)" fill="#ca0011" stroke="#291a17" stroke-width="0.6"/>
    </g>
  </g>
</svg>
