<svg xmlns="http://www.w3.org/2000/svg" width="127.143" height="74.438" viewBox="0 0 127.143 74.438">
  <path id="패스_8548" data-name="패스 8548" d="M258.384,391.351c13.465,0,20.391,11.54,24.621,24.428l3.079,10.2c.575,1.729-1.538,3.27-3.27,3.27H257.039a6.281,6.281,0,0,0,.384-5l-3.654-11.156c-1.922-6.155-4.424-12.308-8.08-17.309a19.24,19.24,0,0,1,12.695-4.424Zm-35.778-4.231c15.008,0,22.7,12.885,27.123,27.118l3.656,11.35c.575,1.925-1.729,3.656-3.847,3.656H195.679c-2.115,0-4.424-1.731-3.654-3.656l3.463-11.35c4.615-14.233,12.308-27.118,27.118-27.118Zm0-32.315a14.33,14.33,0,1,1-14.23,14.233,14.245,14.245,0,0,1,14.23-14.233Zm-35.773,36.545a18.875,18.875,0,0,1,12.692,4.424,64.881,64.881,0,0,0-8.077,17.309l-3.656,11.156a6.281,6.281,0,0,0,.577,5H162.6c-1.925,0-4.04-1.541-3.463-3.27l3.27-10.2c4.04-12.888,10.966-24.428,24.43-24.428Zm0-29.429A13.215,13.215,0,0,1,199.912,375a13.054,13.054,0,0,1-13.078,12.89A12.892,12.892,0,0,1,173.944,375a13.054,13.054,0,0,1,12.89-13.076Zm71.55,0A13.091,13.091,0,0,1,271.465,375a12.983,12.983,0,1,1-13.081-13.076Z" transform="translate(-159.037 -354.806)" fill="#fafbfd" fill-rule="evenodd"/>
</svg>
