<svg id="그룹_463" data-name="그룹 463" xmlns="http://www.w3.org/2000/svg" width="74.984" height="50.085" viewBox="0 0 74.984 50.085" preserveAspectRatio="none">
  <path id="패스_7806" data-name="패스 7806" d="M6.666,239.753V189.668H81.65v50.085Zm74.827-.153v0ZM6.98,239.443H81.34l0-49.469H6.98Z" transform="translate(-6.666 -189.668)" fill="#231f20"/>
  <rect id="사각형_222" data-name="사각형 222" width="74.67" height="49.781" transform="translate(0.159 0.151)" fill="#fff"/>
  <path id="패스_7807" data-name="패스 7807" d="M37.929,204.248a12.28,12.28,0,1,1-13.344-11.111A12.28,12.28,0,0,1,37.929,204.248Z" transform="translate(11.794 -180.324)" fill="#ce1126"/>
  <path id="패스_7808" data-name="패스 7808" d="M15.2,194.676a6.134,6.134,0,1,0,10.491,6.358,6.13,6.13,0,0,1,10.484,6.354A12.263,12.263,0,1,1,15.2,194.676" transform="translate(11.794 -175.979)" fill="#003f87"/>
  <rect id="사각형_223" data-name="사각형 223" width="12.323" height="1.921" transform="translate(11.393 15.152) rotate(-55.983)"/>
  <rect id="사각형_224" data-name="사각형 224" width="12.323" height="1.922" transform="matrix(0.56, -0.829, 0.829, 0.56, 13.845, 16.807)"/>
  <path id="패스_7809" data-name="패스 7809" d="M11.033,202.094l1.594,1.072,6.889-10.216-1.593-1.072Z" transform="translate(5.272 -183.627)"/>
  <rect id="사각형_225" data-name="사각형 225" width="5.708" height="1.921" transform="translate(53.897 35.277) rotate(-55.974)"/>
  <rect id="사각형_226" data-name="사각형 226" width="5.709" height="1.922" transform="translate(50.201 40.762) rotate(-56.058)"/>
  <rect id="사각형_227" data-name="사각형 227" width="5.709" height="1.922" transform="translate(56.351 36.932) rotate(-55.943)"/>
  <path id="패스_7810" data-name="패스 7810" d="M20.769,204.491l1.592,1.079,3.194-4.734-1.6-1.074Z" transform="translate(31.886 -162.077)"/>
  <rect id="사각형_228" data-name="사각형 228" width="5.707" height="1.919" transform="matrix(0.559, -0.829, 0.829, 0.559, 58.809, 38.591)"/>
  <rect id="사각형_229" data-name="사각형 229" width="5.709" height="1.922" transform="translate(55.113 44.075) rotate(-56.098)"/>
  <path id="패스_7811" data-name="패스 7811" d="M27.659,202.72l1.593-1.07-6.887-10.216-1.6,1.072Z" transform="translate(31.886 -184.84)"/>
  <rect id="사각형_230" data-name="사각형 230" width="1.922" height="5.708" transform="matrix(0.829, -0.56, 0.56, 0.829, 55.109, 6.014)"/>
  <rect id="사각형_231" data-name="사각형 231" width="1.921" height="5.709" transform="matrix(0.828, -0.56, 0.56, 0.828, 58.806, 11.498)"/>
  <rect id="사각형_232" data-name="사각형 232" width="1.92" height="5.709" transform="translate(50.202 9.321) rotate(-33.959)"/>
  <rect id="사각형_233" data-name="사각형 233" width="1.919" height="5.71" transform="matrix(0.829, -0.559, 0.559, 0.829, 53.899, 14.805)"/>
  <rect id="사각형_234" data-name="사각형 234" width="1.921" height="12.322" transform="matrix(0.829, -0.559, 0.559, 0.829, 16.305, 31.62)"/>
  <rect id="사각형_235" data-name="사각형 235" width="1.918" height="12.321" transform="matrix(0.829, -0.559, 0.559, 0.829, 11.397, 34.931)"/>
  <rect id="사각형_236" data-name="사각형 236" width="1.923" height="5.71" transform="translate(13.85 33.275) rotate(-33.995)"/>
  <path id="패스_7812" data-name="패스 7812" d="M14.558,205.562l1.593-1.072-3.19-4.729-1.6,1.072Z" transform="translate(6.182 -162.077)"/>
</svg>
