<svg xmlns="http://www.w3.org/2000/svg" width="215.402" height="430.582" viewBox="0 0 215.402 430.582">
  <path id="패스_364" data-name="패스 364" d="M448.676,1696l45.726-10.021-.223-33.307-45.188-9.27a165.818,165.818,0,0,0-9.688-35.871l34.463-31.425-16.847-28.732-44.436,14.786a167.987,167.987,0,0,0-26.049-25.212l14.524-45.677L372,1474.812l-32.356,36.447a166.013,166.013,0,0,0-33.417-8.031L295.48,1454.2l-16.48.112v113.945c1.394-.068,2.791-.126,4.2-.135a100.641,100.641,0,0,1,1.348,201.277c-1.862.013-3.709-.035-5.547-.121v115.5l16.941-.114,10.341-50.4a165.973,165.973,0,0,0,31.988-7.565l34.234,37.545,28.734-16.847-15.415-46.326a168.086,168.086,0,0,0,25.424-24.292l46.094,14.654,16.46-28.955-35.035-31.1A165.831,165.831,0,0,0,448.676,1696Z" transform="translate(-279 -1454.204)" fill="#fff" opacity="0.03"/>
</svg>
