<svg xmlns="http://www.w3.org/2000/svg" width="114.458" height="44.863" viewBox="0 0 114.458 44.863">
  <g id="그룹_80" data-name="그룹 80" transform="translate(-271 -55)">
    <g id="그룹_79" data-name="그룹 79" transform="translate(271 55)">
      <circle id="타원_17" data-name="타원 17" cx="15.275" cy="15.275" r="15.275" transform="translate(4.956 3.24)" fill="none" stroke="#1e1e1e" stroke-width="0.6"/>
      <circle id="타원_18" data-name="타원 18" cx="11.465" cy="11.465" r="11.465" transform="translate(8.766 7.049)" fill="none" stroke="#1e1e1e" stroke-width="0.6"/>
      <circle id="타원_19" data-name="타원 19" cx="7.583" cy="7.583" r="7.583" transform="translate(12.649 10.932)" fill="none" stroke="#161717" stroke-width="0.6"/>
      <path id="패스_83" data-name="패스 83" d="M82.09,136.328H74.583l9.854-23.412h7.506Z" transform="translate(-47.969 -100.442)" fill="#291a17"/>
      <path id="패스_84" data-name="패스 84" d="M105.18,113.016h8.5l-12.7,11.342,3.373,11.97h-8.2l-2.579-12.2Z" transform="translate(-54.31 -100.475)" fill="#291a17"/>
      <path id="패스_85" data-name="패스 85" d="M136.818,113.85l-1.62,5.225s-1.092-1.191-5.093-1.124-3.571,3.472-2.348,4.431,3.77,4.2,3.671,6.613-2.48,5.919-5.886,7.11-8.167,1.158-11.937.5l1.653-5.588a7.679,7.679,0,0,0,5.357,1.951c3.075-.232,3.8-1.455,3.5-3.075s-2.017-3.7-3.406-5.059-1.224-4.629.992-7.705,5.754-3.406,8.995-3.637A25.079,25.079,0,0,1,136.818,113.85Z" transform="translate(-60.999 -100.614)" fill="#291a17"/>
      <path id="패스_86" data-name="패스 86" d="M194.83,113.85l-1.621,5.225s-1.091-1.191-5.093-1.124-3.571,3.472-2.347,4.431,3.769,4.2,3.67,6.613-2.48,5.919-5.886,7.11-8.167,1.158-11.937.5l1.653-5.588a7.679,7.679,0,0,0,5.357,1.951c3.075-.232,3.8-1.455,3.505-3.075s-2.018-3.7-3.406-5.059-1.224-4.629.992-7.705,5.754-3.406,8.995-3.637A25.087,25.087,0,0,1,194.83,113.85Z" transform="translate(-80.371 -100.614)" fill="#291a17"/>
      <path id="패스_87" data-name="패스 87" d="M161.446,131.9H150.977l7.989-18.981h-7.506l-9.854,23.412h7.506v0l9.952.028Z" transform="translate(-70.35 -100.442)" fill="#291a17"/>
      <g id="그룹_78" data-name="그룹 78" transform="translate(26.503 38.68)">
        <path id="패스_88" data-name="패스 88" d="M75.684,155.069l-.733.906v1.114h-.535v-4.531h.535v2.614l2.092-2.614h.667l-1.68,2.082,1.8,2.449h-.683Z" transform="translate(-74.416 -152.359)" fill="#1a1311"/>
        <path id="패스_89" data-name="패스 89" d="M81.869,154.6a1.49,1.49,0,0,1,.532.608,2.072,2.072,0,0,1,0,1.736,1.486,1.486,0,0,1-.532.608,1.434,1.434,0,0,1-1.53,0,1.51,1.51,0,0,1-.532-.608,2.046,2.046,0,0,1,0-1.736,1.515,1.515,0,0,1,.532-.608,1.434,1.434,0,0,1,1.53,0Zm-1.27.45a1.049,1.049,0,0,0-.346.424,1.521,1.521,0,0,0,0,1.206,1.051,1.051,0,0,0,.346.424.9.9,0,0,0,1.01,0,1.02,1.02,0,0,0,.346-.424,1.551,1.551,0,0,0,0-1.206,1.018,1.018,0,0,0-.346-.424.9.9,0,0,0-1.01,0Z" transform="translate(-76.152 -152.969)" fill="#1a1311"/>
        <path id="패스_90" data-name="패스 90" d="M85.619,154.462v.5a1.117,1.117,0,0,1,.39-.4,1.183,1.183,0,0,1,.659-.178,1.13,1.13,0,0,1,.4.057v.555a.944.944,0,0,0-.433-.091.913.913,0,0,0-.522.155,1.068,1.068,0,0,0-.362.414,1.2,1.2,0,0,0-.13.552V157.7H85.1v-3.236Z" transform="translate(-77.982 -152.969)" fill="#1a1311"/>
        <path id="패스_91" data-name="패스 91" d="M89.084,157.556a1.482,1.482,0,0,1-.522-.608,2.092,2.092,0,0,1,0-1.736,1.486,1.486,0,0,1,.522-.608,1.386,1.386,0,0,1,1.5,0,1.472,1.472,0,0,1,.52.608,1.982,1.982,0,0,1,.186.868,1.9,1.9,0,0,1-.011.238H88.9a1.139,1.139,0,0,0,.3.7.846.846,0,0,0,.639.271.977.977,0,0,0,.512-.133.7.7,0,0,0,.3-.337h.534a1.278,1.278,0,0,1-.489.693,1.414,1.414,0,0,1-.861.268A1.324,1.324,0,0,1,89.084,157.556Zm1.393-2.413a.9.9,0,0,0-1.284,0,1.146,1.146,0,0,0-.3.7h1.878A1.161,1.161,0,0,0,90.477,155.144Z" transform="translate(-79.077 -152.969)" fill="#1a1311"/>
        <path id="패스_92" data-name="패스 92" d="M94.23,157.556a1.494,1.494,0,0,1-.516-.611,2.073,2.073,0,0,1,0-1.73,1.5,1.5,0,0,1,.516-.611,1.285,1.285,0,0,1,.736-.221,1.212,1.212,0,0,1,.641.165,1.036,1.036,0,0,1,.392.4v-.481h.524V157.7H96v-.48a1.04,1.04,0,0,1-.392.395,1.212,1.212,0,0,1-.641.165A1.285,1.285,0,0,1,94.23,157.556Zm1.3-.449a1.051,1.051,0,0,0,.354-.424,1.492,1.492,0,0,0,0-1.206,1.049,1.049,0,0,0-.354-.424.891.891,0,0,0-.517-.156.866.866,0,0,0-.507.153,1,1,0,0,0-.344.424,1.565,1.565,0,0,0,0,1.211,1,1,0,0,0,.344.424.871.871,0,0,0,.507.152A.891.891,0,0,0,95.529,157.107Z" transform="translate(-80.797 -152.969)" fill="#1a1311"/>
        <path id="패스_93" data-name="패스 93" d="M103.649,152.569a1.439,1.439,0,0,1,.57.484,1.37,1.37,0,0,1,.239.7h-.549a.907.907,0,0,0-.334-.611,1.137,1.137,0,0,0-.751-.238,1.229,1.229,0,0,0-.736.2.6.6,0,0,0-.267.506.593.593,0,0,0,.127.388,1,1,0,0,0,.394.268,4.576,4.576,0,0,0,.726.22,2.287,2.287,0,0,1,1.072.5,1.125,1.125,0,0,1,.333.841,1.154,1.154,0,0,1-.214.693,1.383,1.383,0,0,1-.585.458,2.044,2.044,0,0,1-.825.161,1.916,1.916,0,0,1-.848-.181,1.463,1.463,0,0,1-.848-1.273h.55a.965.965,0,0,0,.359.679,1.258,1.258,0,0,0,.822.26,1.437,1.437,0,0,0,.54-.1.852.852,0,0,0,.372-.272.642.642,0,0,0,.132-.4.651.651,0,0,0-.127-.413.977.977,0,0,0-.394-.28,4.419,4.419,0,0,0-.735-.223,2.314,2.314,0,0,1-1.052-.476,1.108,1.108,0,0,1-.338-.86,1.055,1.055,0,0,1,.2-.641,1.277,1.277,0,0,1,.557-.422,2.1,2.1,0,0,1,.81-.147A1.809,1.809,0,0,1,103.649,152.569Z" transform="translate(-83.345 -152.305)" fill="#1a1311"/>
        <path id="패스_94" data-name="패스 94" d="M108.5,154.523h-.647v2.721h-.524v-2.721h-.647v-.515h.647v-.984h.524v.984h.647Z" transform="translate(-85.19 -152.515)" fill="#1a1311"/>
        <path id="패스_95" data-name="패스 95" d="M110.55,157.556a1.5,1.5,0,0,1-.517-.611,2.08,2.08,0,0,1,0-1.73,1.5,1.5,0,0,1,.517-.611,1.285,1.285,0,0,1,.736-.221,1.214,1.214,0,0,1,.641.165,1.036,1.036,0,0,1,.392.4v-.481h.524V157.7h-.524v-.48a1.04,1.04,0,0,1-.392.395,1.214,1.214,0,0,1-.641.165A1.285,1.285,0,0,1,110.55,157.556Zm1.3-.449a1.057,1.057,0,0,0,.354-.424,1.492,1.492,0,0,0,0-1.206,1.055,1.055,0,0,0-.354-.424.892.892,0,0,0-.517-.156.866.866,0,0,0-.507.153.994.994,0,0,0-.344.424,1.565,1.565,0,0,0,0,1.211,1,1,0,0,0,.344.424.871.871,0,0,0,.507.152A.892.892,0,0,0,111.849,157.107Z" transform="translate(-86.247 -152.969)" fill="#1a1311"/>
        <path id="패스_96" data-name="패스 96" d="M116.11,154.462v.492a1.091,1.091,0,0,1,.369-.4,1.075,1.075,0,0,1,.619-.175,1.088,1.088,0,0,1,.609.175,1.156,1.156,0,0,1,.415.5,1.77,1.77,0,0,1,.147.749V157.7h-.524V155.9a1.213,1.213,0,0,0-.2-.749.662.662,0,0,0-.557-.264.711.711,0,0,0-.448.156,1.058,1.058,0,0,0-.313.416,1.379,1.379,0,0,0-.115.56V157.7h-.524v-3.236Z" transform="translate(-88.164 -152.969)" fill="#1a1311"/>
        <path id="패스_97" data-name="패스 97" d="M121.206,156.876a1.491,1.491,0,0,1-.517-.611,2.073,2.073,0,0,1,0-1.73,1.5,1.5,0,0,1,.517-.611,1.282,1.282,0,0,1,.735-.221,1.212,1.212,0,0,1,.641.165,1.037,1.037,0,0,1,.392.4v-1.918h.524v4.672h-.524v-.48a1.04,1.04,0,0,1-.392.4,1.212,1.212,0,0,1-.641.165A1.282,1.282,0,0,1,121.206,156.876Zm1.3-.449a1.052,1.052,0,0,0,.354-.424,1.492,1.492,0,0,0,0-1.206,1.049,1.049,0,0,0-.354-.424.891.891,0,0,0-.517-.156.866.866,0,0,0-.507.153,1,1,0,0,0-.344.424,1.565,1.565,0,0,0,0,1.211,1,1,0,0,0,.344.424.87.87,0,0,0,.507.153A.891.891,0,0,0,122.5,156.427Z" transform="translate(-89.805 -152.288)" fill="#1a1311"/>
        <path id="패스_98" data-name="패스 98" d="M126.717,157.556a1.5,1.5,0,0,1-.517-.611,2.08,2.08,0,0,1,0-1.73,1.5,1.5,0,0,1,.517-.611,1.283,1.283,0,0,1,.735-.221,1.212,1.212,0,0,1,.641.165,1.036,1.036,0,0,1,.392.4v-.481h.524V157.7h-.524v-.48a1.04,1.04,0,0,1-.392.395,1.212,1.212,0,0,1-.641.165A1.283,1.283,0,0,1,126.717,157.556Zm1.3-.449a1.046,1.046,0,0,0,.354-.424,1.492,1.492,0,0,0,0-1.206,1.044,1.044,0,0,0-.354-.424.891.891,0,0,0-.517-.156.866.866,0,0,0-.507.153,1,1,0,0,0-.344.424,1.565,1.565,0,0,0,0,1.211,1.01,1.01,0,0,0,.344.424.871.871,0,0,0,.507.152A.891.891,0,0,0,128.016,157.107Z" transform="translate(-91.646 -152.969)" fill="#1a1311"/>
        <path id="패스_99" data-name="패스 99" d="M132.277,154.462v.5a1.117,1.117,0,0,1,.39-.4,1.183,1.183,0,0,1,.659-.178,1.128,1.128,0,0,1,.4.057v.555a.943.943,0,0,0-.432-.091.915.915,0,0,0-.522.155,1.066,1.066,0,0,0-.361.414,1.2,1.2,0,0,0-.13.552V157.7h-.525v-3.236Z" transform="translate(-93.563 -152.969)" fill="#1a1311"/>
        <path id="패스_100" data-name="패스 100" d="M135.736,156.876a1.5,1.5,0,0,1-.517-.611,2.08,2.08,0,0,1,0-1.73,1.5,1.5,0,0,1,.517-.611,1.285,1.285,0,0,1,.736-.221,1.214,1.214,0,0,1,.641.165,1.037,1.037,0,0,1,.392.4v-1.918h.524v4.672h-.524v-.48a1.04,1.04,0,0,1-.392.4,1.214,1.214,0,0,1-.641.165A1.285,1.285,0,0,1,135.736,156.876Zm1.3-.449a1.057,1.057,0,0,0,.354-.424,1.492,1.492,0,0,0,0-1.206,1.054,1.054,0,0,0-.354-.424.893.893,0,0,0-.517-.156.866.866,0,0,0-.507.153.994.994,0,0,0-.344.424,1.565,1.565,0,0,0,0,1.211,1,1,0,0,0,.344.424.87.87,0,0,0,.507.153A.892.892,0,0,0,137.035,156.427Z" transform="translate(-94.658 -152.288)" fill="#1a1311"/>
        <path id="패스_101" data-name="패스 101" d="M143.485,156.551h2.241v.537h-2.775v-4.531h.534Z" transform="translate(-97.302 -152.359)" fill="#1a1311"/>
        <path id="패스_102" data-name="패스 102" d="M148.311,157.556a1.491,1.491,0,0,1-.517-.611,2.073,2.073,0,0,1,0-1.73,1.5,1.5,0,0,1,.517-.611,1.282,1.282,0,0,1,.735-.221,1.212,1.212,0,0,1,.641.165,1.03,1.03,0,0,1,.392.4v-.481h.525V157.7h-.525v-.48a1.033,1.033,0,0,1-.392.395,1.212,1.212,0,0,1-.641.165A1.282,1.282,0,0,1,148.311,157.556Zm1.3-.449a1.051,1.051,0,0,0,.354-.424,1.492,1.492,0,0,0,0-1.206,1.049,1.049,0,0,0-.354-.424.891.891,0,0,0-.517-.156.866.866,0,0,0-.507.153,1,1,0,0,0-.344.424,1.565,1.565,0,0,0,0,1.211,1,1,0,0,0,.344.424.871.871,0,0,0,.507.152A.891.891,0,0,0,149.609,157.107Z" transform="translate(-98.856 -152.969)" fill="#1a1311"/>
        <path id="패스_103" data-name="패스 103" d="M155.055,154.5a1.158,1.158,0,0,1,.456.334.806.806,0,0,1,.181.484h-.515a.421.421,0,0,0-.234-.334,1.042,1.042,0,0,0-.539-.13,1,1,0,0,0-.522.124.36.36,0,0,0-.206.306.382.382,0,0,0,.191.334,1.951,1.951,0,0,0,.705.2,1.869,1.869,0,0,1,.911.328.771.771,0,0,1,.275.622.841.841,0,0,1-.176.531,1.115,1.115,0,0,1-.476.348,1.774,1.774,0,0,1-.667.121,1.666,1.666,0,0,1-.672-.127,1.109,1.109,0,0,1-.456-.35.952.952,0,0,1-.186-.507h.514a.515.515,0,0,0,.237.36.986.986,0,0,0,.577.15,1.065,1.065,0,0,0,.565-.139.41.41,0,0,0,.224-.354.367.367,0,0,0-.206-.325,2.134,2.134,0,0,0-.715-.2,1.826,1.826,0,0,1-.881-.319.858.858,0,0,1-.115-1.14,1.055,1.055,0,0,1,.451-.33,1.674,1.674,0,0,1,.641-.117A1.617,1.617,0,0,1,155.055,154.5Z" transform="translate(-100.7 -152.969)" fill="#1a1311"/>
        <path id="패스_104" data-name="패스 104" d="M158.551,157.556a1.482,1.482,0,0,1-.522-.608,2.092,2.092,0,0,1,0-1.736,1.486,1.486,0,0,1,.522-.608,1.386,1.386,0,0,1,1.5,0,1.472,1.472,0,0,1,.52.608,1.982,1.982,0,0,1,.186.868,2.06,2.06,0,0,1-.01.238h-2.383a1.139,1.139,0,0,0,.3.7.846.846,0,0,0,.639.271.976.976,0,0,0,.512-.133.7.7,0,0,0,.3-.337h.535a1.282,1.282,0,0,1-.49.693,1.413,1.413,0,0,1-.86.268A1.326,1.326,0,0,1,158.551,157.556Zm1.393-2.413a.9.9,0,0,0-1.284,0,1.142,1.142,0,0,0-.3.7h1.879A1.166,1.166,0,0,0,159.944,155.144Z" transform="translate(-102.275 -152.969)" fill="#1a1311"/>
        <path id="패스_105" data-name="패스 105" d="M163.746,154.462v.5a1.116,1.116,0,0,1,.39-.4,1.183,1.183,0,0,1,.659-.178,1.132,1.132,0,0,1,.4.057v.555a.945.945,0,0,0-.433-.091.911.911,0,0,0-.522.155,1.068,1.068,0,0,0-.362.414,1.2,1.2,0,0,0-.13.552V157.7h-.524v-3.236Z" transform="translate(-104.072 -152.969)" fill="#1a1311"/>
        <path id="패스_106" data-name="패스 106" d="M171.343,152.569a1.443,1.443,0,0,1,.57.484,1.383,1.383,0,0,1,.24.7H171.6a.906.906,0,0,0-.333-.611,1.138,1.138,0,0,0-.751-.238,1.228,1.228,0,0,0-.735.2.6.6,0,0,0-.267.506.589.589,0,0,0,.127.388,1,1,0,0,0,.394.268,4.554,4.554,0,0,0,.726.22,2.284,2.284,0,0,1,1.071.5,1.122,1.122,0,0,1,.334.841,1.15,1.15,0,0,1-.214.693,1.383,1.383,0,0,1-.585.458,2.042,2.042,0,0,1-.825.161,1.917,1.917,0,0,1-.848-.181,1.461,1.461,0,0,1-.847-1.273h.549a.967.967,0,0,0,.359.679,1.256,1.256,0,0,0,.822.26,1.444,1.444,0,0,0,.54-.1.848.848,0,0,0,.371-.272.639.639,0,0,0,.133-.4.655.655,0,0,0-.128-.413.985.985,0,0,0-.395-.28,4.4,4.4,0,0,0-.735-.223,2.315,2.315,0,0,1-1.051-.476,1.108,1.108,0,0,1-.339-.86,1.051,1.051,0,0,1,.2-.641,1.266,1.266,0,0,1,.557-.422,2.093,2.093,0,0,1,.809-.147A1.809,1.809,0,0,1,171.343,152.569Z" transform="translate(-105.951 -152.305)" fill="#1a1311"/>
        <path id="패스_107" data-name="패스 107" d="M175.335,152.345v1.929a1.091,1.091,0,0,1,.369-.4,1.073,1.073,0,0,1,.619-.175,1.085,1.085,0,0,1,.608.175,1.147,1.147,0,0,1,.415.5,1.77,1.77,0,0,1,.148.749v1.895h-.524v-1.793a1.213,1.213,0,0,0-.2-.749.662.662,0,0,0-.557-.264.71.71,0,0,0-.448.156,1.058,1.058,0,0,0-.313.416,1.368,1.368,0,0,0-.115.56v1.674h-.524v-4.672Z" transform="translate(-107.941 -152.288)" fill="#1a1311"/>
        <path id="패스_108" data-name="패스 108" d="M182,154.6a1.5,1.5,0,0,1,.532.608,2.072,2.072,0,0,1,0,1.736,1.49,1.49,0,0,1-.532.608,1.434,1.434,0,0,1-1.53,0,1.5,1.5,0,0,1-.532-.608,2.04,2.04,0,0,1,0-1.736,1.5,1.5,0,0,1,.532-.608,1.434,1.434,0,0,1,1.53,0Zm-1.27.45a1.039,1.039,0,0,0-.346.424,1.521,1.521,0,0,0,0,1.206,1.041,1.041,0,0,0,.346.424.9.9,0,0,0,1.01,0,1.02,1.02,0,0,0,.346-.424,1.551,1.551,0,0,0,0-1.206,1.018,1.018,0,0,0-.346-.424.9.9,0,0,0-1.01,0Z" transform="translate(-109.59 -152.969)" fill="#1a1311"/>
        <path id="패스_109" data-name="패스 109" d="M187.255,154.6a1.5,1.5,0,0,1,.532.608,2.072,2.072,0,0,1,0,1.736,1.491,1.491,0,0,1-.532.608,1.434,1.434,0,0,1-1.53,0,1.5,1.5,0,0,1-.532-.608,2.04,2.04,0,0,1,0-1.736,1.5,1.5,0,0,1,.532-.608,1.434,1.434,0,0,1,1.53,0Zm-1.27.45a1.039,1.039,0,0,0-.346.424,1.513,1.513,0,0,0,0,1.206,1.041,1.041,0,0,0,.346.424.9.9,0,0,0,1.01,0,1.02,1.02,0,0,0,.346-.424,1.552,1.552,0,0,0,0-1.206,1.018,1.018,0,0,0-.346-.424.9.9,0,0,0-1.01,0Z" transform="translate(-111.344 -152.969)" fill="#1a1311"/>
        <path id="패스_110" data-name="패스 110" d="M191.717,154.523h-.647v2.721h-.524v-2.721H189.9v-.515h.647v-.984h.524v.984h.647Z" transform="translate(-112.98 -152.515)" fill="#1a1311"/>
        <path id="패스_111" data-name="패스 111" d="M193.907,152.37a.432.432,0,0,1,0,.55.328.328,0,0,1-.252.11.321.321,0,0,1-.246-.11.43.43,0,0,1,0-.55.319.319,0,0,1,.246-.11A.326.326,0,0,1,193.907,152.37ZM193.395,157v-3.242h.525V157Z" transform="translate(-114.119 -152.26)" fill="#1a1311"/>
        <path id="패스_112" data-name="패스 112" d="M195.988,154.462v.492a1.087,1.087,0,0,1,.37-.4,1.07,1.07,0,0,1,.618-.175,1.085,1.085,0,0,1,.608.175,1.153,1.153,0,0,1,.416.5,1.78,1.78,0,0,1,.147.749V157.7h-.524V155.9a1.213,1.213,0,0,0-.2-.749.662.662,0,0,0-.558-.264.708.708,0,0,0-.448.156,1.053,1.053,0,0,0-.314.416,1.379,1.379,0,0,0-.115.56V157.7h-.524v-3.236Z" transform="translate(-114.838 -152.969)" fill="#1a1311"/>
        <path id="패스_113" data-name="패스 113" d="M201.013,158.827a1.393,1.393,0,0,1-.436-.824h.534a.777.777,0,0,0,.262.465.874.874,0,0,0,.583.18.826.826,0,0,0,.649-.28,1.091,1.091,0,0,0,.246-.749v-.447a1.032,1.032,0,0,1-.392.4,1.216,1.216,0,0,1-.642.164,1.306,1.306,0,0,1-.736-.218,1.5,1.5,0,0,1-.516-.6,1.9,1.9,0,0,1-.189-.852,1.924,1.924,0,0,1,.189-.854,1.517,1.517,0,0,1,.516-.6,1.288,1.288,0,0,1,.736-.221,1.216,1.216,0,0,1,.642.165,1.035,1.035,0,0,1,.392.4v-.481h.525v3.162a1.689,1.689,0,0,1-.181.789,1.344,1.344,0,0,1-.5.543,1.4,1.4,0,0,1-.736.2A1.342,1.342,0,0,1,201.013,158.827Zm1.369-1.751a1.034,1.034,0,0,0,.354-.418,1.451,1.451,0,0,0,0-1.188,1.025,1.025,0,0,0-.354-.418.9.9,0,0,0-.517-.153.863.863,0,0,0-.506.153,1,1,0,0,0-.344.418,1.5,1.5,0,0,0,0,1.188,1.006,1.006,0,0,0,.344.418.867.867,0,0,0,.506.153A.9.9,0,0,0,202.382,157.076Z" transform="translate(-116.48 -152.969)" fill="#1a1311"/>
      </g>
      <line id="선_3" data-name="선 3" x2="37.05" transform="translate(0 18.525)" fill="none" stroke="#291a17" stroke-width="0.6"/>
      <line id="선_4" data-name="선 4" y2="37.05" transform="translate(20.221)" fill="none" stroke="#291a17" stroke-width="0.6"/>
      <circle id="타원_20" data-name="타원 20" cx="2.377" cy="2.377" r="2.377" transform="translate(17.855 16.138)" fill="#ca0011" stroke="#291a17" stroke-width="0.6"/>
    </g>
  </g>
</svg>
