<svg xmlns="http://www.w3.org/2000/svg" width="103.861" height="77.645" viewBox="0 0 103.861 77.645">
  <g id="그룹_1003" data-name="그룹 1003" transform="translate(0 0)">
    <path id="사각형_593" data-name="사각형 593" d="M1.023,0h27.2a1.024,1.024,0,0,1,1.024,1.024V22.169a1.023,1.023,0,0,1-1.023,1.023H1.023A1.023,1.023,0,0,1,0,22.169V1.023A1.023,1.023,0,0,1,1.023,0Z" transform="translate(37.309 0)" fill="#fff"/>
    <path id="사각형_594" data-name="사각형 594" d="M1.024,0H28.218a1.024,1.024,0,0,1,1.024,1.024V22.17a1.024,1.024,0,0,1-1.024,1.024H1.023A1.023,1.023,0,0,1,0,22.171V1.024A1.024,1.024,0,0,1,1.024,0Z" transform="translate(74.619 54.451)" fill="#fff"/>
    <path id="사각형_595" data-name="사각형 595" d="M1.024,0h27.2a1.024,1.024,0,0,1,1.024,1.024V22.17a1.024,1.024,0,0,1-1.024,1.024H1.023A1.023,1.023,0,0,1,0,22.171V1.024A1.024,1.024,0,0,1,1.024,0Z" transform="translate(37.309 54.451)" fill="#fff"/>
    <path id="사각형_596" data-name="사각형 596" d="M1.024,0h27.2a1.023,1.023,0,0,1,1.023,1.023V22.17a1.024,1.024,0,0,1-1.024,1.024H1.023A1.023,1.023,0,0,1,0,22.171V1.024A1.024,1.024,0,0,1,1.024,0Z" transform="translate(0 54.451)" fill="#fff"/>
    <path id="패스_8440" data-name="패스 8440" d="M796.422,1020.915a1.514,1.514,0,0,0-1.513-1.515H758.964v-8.318a1.515,1.515,0,0,0-1.514-1.513h-3.025a1.515,1.515,0,0,0-1.512,1.513v8.318H716.87a1.514,1.514,0,0,0-1.513,1.515v.541c-.006.064-.037.118-.037.182v12.134a1.514,1.514,0,0,0,1.513,1.51h3.026a1.51,1.51,0,0,0,1.51-1.51v-8.321h31.545v8.321a1.512,1.512,0,0,0,1.512,1.51h3.025a1.513,1.513,0,0,0,1.514-1.51v-8.321H790.38v8.6a1.512,1.512,0,0,0,1.514,1.512h3.025a1.511,1.511,0,0,0,1.51-1.512v-12.7c0-.019-.007-.033-.007-.053Z" transform="translate(-704.008 -983.856)" fill="#fff"/>
  </g>
</svg>
