<svg xmlns="http://www.w3.org/2000/svg" width="91.167" height="167.053" viewBox="0 0 91.167 167.053">
  <g id="그룹_445" data-name="그룹 445" transform="translate(-36.122 -30.003)">
    <g id="그룹_444" data-name="그룹 444" transform="translate(36.122 30.003)">
      <g id="그룹_408" data-name="그룹 408" transform="translate(0 0)">
        <path id="패스_7782" data-name="패스 7782" d="M126.66,97.2a5.73,5.73,0,0,0-2.53-2.515c-7.545-3.8-13.133-6.655-17.259-8.794s-6.792-3.562-8.5-4.49a6.438,6.438,0,0,1-3.3-4.775l-.8-5.8-.8-5.8a1.551,1.551,0,0,1,.611-1.457l.817-.608a1.927,1.927,0,0,0,.717-1.069c.9-3.519,1.583-6.206,2.48-9.725a1.33,1.33,0,0,0-1.308-1.659c-.118,0-.543.016-.543.016S96.34,43.74,95.237,40.3c-2.248-7-7.391-10.328-13.531-10.3-6.14-.026-11.284,3.3-13.532,10.3-1.1,3.435-1.015,10.221-1.015,10.221s-.425-.014-.543-.016a1.33,1.33,0,0,0-1.308,1.659c.9,3.519,1.582,6.206,2.48,9.725a1.927,1.927,0,0,0,.717,1.069l.817.608a1.551,1.551,0,0,1,.611,1.457l-.8,5.8-.8,5.8a6.438,6.438,0,0,1-3.3,4.775c-1.7.929-4.369,2.351-8.5,4.49s-9.713,5-17.259,8.794a5.739,5.739,0,0,0-3.084,6.04c5.285,32.72,7.759,47.985,8.953,55.4s1.106,6.99,1.269,8.323a83.912,83.912,0,0,1,.657,9.7c.065,3.736.023,8.718.023,17.168a5.739,5.739,0,0,0,5.738,5.738h57.739a5.738,5.738,0,0,0,5.738-5.738c0-8.45-.041-13.432.023-17.168a83.916,83.916,0,0,1,.657-9.7c.163-1.333.075-.9,1.269-8.323s3.668-22.684,8.953-55.4A5.733,5.733,0,0,0,126.66,97.2Z" transform="translate(-36.122 -30.003)" fill="#363636"/>
      </g>
      <g id="그룹_434" data-name="그룹 434" transform="translate(16.452 60.073)">
        <g id="그룹_427" data-name="그룹 427" transform="translate(3.665 4.998)">
          <g id="그룹_417" data-name="그룹 417" transform="translate(0 40.361)">
            <g id="그룹_412" data-name="그룹 412" transform="translate(32.501)">
              <g id="그룹_409" data-name="그룹 409">
                <path id="패스_7783" data-name="패스 7783" d="M142.24,244.7a1.576,1.576,0,0,0,.3-.012,1.041,1.041,0,0,0,.575-.267,1.206,1.206,0,0,0,.364-.732h-.013a.806.806,0,0,1-.647.3.8.8,0,0,1-.812-.842.943.943,0,0,1,.939-.977c.563,0,.909.457.909,1.159a1.738,1.738,0,0,1-.474,1.291,1.372,1.372,0,0,1-.8.368,1.706,1.706,0,0,1-.343.021Zm.136-1.582a.529.529,0,0,0,.529.584.615.615,0,0,0,.542-.288.251.251,0,0,0,.034-.136c0-.47-.173-.829-.563-.829C142.6,242.448,142.375,242.728,142.375,243.117Z" transform="translate(-142.007 -242.165)" fill="#fff"/>
              </g>
              <g id="그룹_410" data-name="그룹 410" transform="translate(8.15)">
                <path id="패스_7784" data-name="패스 7784" d="M158.408,244.264a.786.786,0,0,1,.546-.736l0-.013a.681.681,0,0,1-.436-.618.771.771,0,0,1,.851-.732.71.71,0,0,1,.8.677.7.7,0,0,1-.453.643v.013a.763.763,0,0,1,.554.711.847.847,0,0,1-.935.8C158.755,245.008,158.408,244.666,158.408,244.264Zm1.481-.017c0-.334-.233-.495-.6-.6a.6.6,0,0,0-.495.567.508.508,0,0,0,.55.525A.5.5,0,0,0,159.889,244.247Zm-1.024-1.375c0,.275.207.423.525.507a.542.542,0,0,0,.419-.5.428.428,0,0,0-.466-.449A.437.437,0,0,0,158.865,242.872Z" transform="translate(-158.408 -242.165)" fill="#fff"/>
              </g>
              <g id="그룹_411" data-name="그룹 411" transform="translate(16.402 0.047)">
                <path id="패스_7785" data-name="패스 7785" d="M176.749,242.259v.245l-1.2,2.505h-.385l1.193-2.433v-.008h-1.346v-.309Z" transform="translate(-175.014 -242.259)" fill="#fff"/>
              </g>
            </g>
            <g id="그룹_416" data-name="그룹 416">
              <g id="그룹_413" data-name="그룹 413" transform="translate(0 0.047)">
                <path id="패스_7786" data-name="패스 7786" d="M78.339,242.259v.245l-1.2,2.505h-.385l1.193-2.433v-.008H76.6v-.309Z" transform="translate(-76.604 -242.259)" fill="#fff"/>
              </g>
              <g id="그룹_414" data-name="그룹 414" transform="translate(8.083)">
                <path id="패스_7787" data-name="패스 7787" d="M92.869,244.264a.786.786,0,0,1,.546-.736l0-.013a.681.681,0,0,1-.436-.618.77.77,0,0,1,.85-.732.71.71,0,0,1,.8.677.7.7,0,0,1-.453.643v.013a.763.763,0,0,1,.554.711.847.847,0,0,1-.935.8C93.216,245.008,92.869,244.666,92.869,244.264Zm1.481-.017c0-.334-.233-.495-.6-.6a.6.6,0,0,0-.495.567.508.508,0,0,0,.55.525A.5.5,0,0,0,94.35,244.247Zm-1.024-1.375c0,.275.207.423.525.507a.542.542,0,0,0,.419-.5.428.428,0,0,0-.466-.449A.437.437,0,0,0,93.326,242.872Z" transform="translate(-92.869 -242.165)" fill="#fff"/>
              </g>
              <g id="그룹_415" data-name="그룹 415" transform="translate(16.267)">
                <path id="패스_7788" data-name="패스 7788" d="M109.572,244.7a1.576,1.576,0,0,0,.3-.012,1.041,1.041,0,0,0,.575-.267,1.209,1.209,0,0,0,.364-.732H110.8a.806.806,0,0,1-.647.3.8.8,0,0,1-.812-.842.943.943,0,0,1,.939-.977c.563,0,.91.457.91,1.159a1.738,1.738,0,0,1-.474,1.291,1.372,1.372,0,0,1-.8.368,1.706,1.706,0,0,1-.343.021Zm.136-1.582a.529.529,0,0,0,.529.584.616.616,0,0,0,.542-.288.251.251,0,0,0,.034-.136c0-.47-.173-.829-.563-.829C109.931,242.448,109.707,242.728,109.707,243.117Z" transform="translate(-109.339 -242.165)" fill="#fff"/>
              </g>
            </g>
          </g>
          <g id="그룹_426" data-name="그룹 426" transform="translate(24.367)">
            <g id="그룹_421" data-name="그룹 421">
              <g id="그룹_418" data-name="그룹 418" transform="translate(0.016 25.828)">
                <path id="패스_7789" data-name="패스 7789" d="M125.905,215.456a1.538,1.538,0,0,0,.3-.013,1.042,1.042,0,0,0,.575-.266,1.209,1.209,0,0,0,.364-.732h-.012a.808.808,0,0,1-.648.3.8.8,0,0,1-.812-.842.943.943,0,0,1,.94-.977c.563,0,.909.457.909,1.159a1.739,1.739,0,0,1-.474,1.291,1.374,1.374,0,0,1-.8.368,1.733,1.733,0,0,1-.342.021Zm.135-1.583a.529.529,0,0,0,.529.584.615.615,0,0,0,.542-.288.243.243,0,0,0,.034-.135c0-.47-.173-.829-.563-.829C126.264,213.2,126.04,213.484,126.04,213.873Z" transform="translate(-125.672 -212.921)" fill="#fff"/>
              </g>
              <g id="그룹_419" data-name="그룹 419" transform="translate(0 12.891)">
                <path id="패스_7790" data-name="패스 7790" d="M125.639,188.986a.786.786,0,0,1,.546-.736l0-.013a.68.68,0,0,1-.436-.618.77.77,0,0,1,.85-.732.71.71,0,0,1,.8.677.7.7,0,0,1-.453.643v.013a.762.762,0,0,1,.555.711.847.847,0,0,1-.935.8C125.986,189.73,125.639,189.387,125.639,188.986Zm1.481-.017c0-.334-.233-.495-.605-.6a.6.6,0,0,0-.495.567.509.509,0,0,0,.55.525A.5.5,0,0,0,127.12,188.969Zm-1.024-1.375c0,.275.208.423.525.507a.542.542,0,0,0,.419-.5.428.428,0,0,0-.466-.449A.438.438,0,0,0,126.1,187.594Z" transform="translate(-125.639 -186.887)" fill="#fff"/>
              </g>
              <g id="그룹_420" data-name="그룹 420" transform="translate(0.085)">
                <path id="패스_7791" data-name="패스 7791" d="M127.544,160.946v.245l-1.2,2.5h-.385l1.193-2.433v-.008H125.81v-.309Z" transform="translate(-125.81 -160.946)" fill="#fff"/>
              </g>
            </g>
            <g id="그룹_425" data-name="그룹 425" transform="translate(0 54.893)">
              <g id="그룹_422" data-name="그룹 422" transform="translate(0.084 25.922)">
                <path id="패스_7792" data-name="패스 7792" d="M127.543,323.572v.245l-1.2,2.505h-.385l1.193-2.433v-.008h-1.345v-.309Z" transform="translate(-125.809 -323.572)" fill="#fff"/>
              </g>
              <g id="그룹_423" data-name="그룹 423" transform="translate(0 12.938)">
                <path id="패스_7793" data-name="패스 7793" d="M125.639,299.542a.786.786,0,0,1,.546-.736l0-.013a.681.681,0,0,1-.436-.618.77.77,0,0,1,.85-.732.71.71,0,0,1,.8.677.7.7,0,0,1-.453.643v.013a.762.762,0,0,1,.555.711.847.847,0,0,1-.935.8C125.986,300.286,125.639,299.944,125.639,299.542Zm1.481-.017c0-.334-.233-.495-.605-.6a.6.6,0,0,0-.495.568.508.508,0,0,0,.55.524A.5.5,0,0,0,127.12,299.525ZM126.1,298.15c0,.275.208.423.525.508a.542.542,0,0,0,.419-.5.428.428,0,0,0-.466-.449A.438.438,0,0,0,126.1,298.15Z" transform="translate(-125.639 -297.443)" fill="#fff"/>
              </g>
              <g id="그룹_424" data-name="그룹 424" transform="translate(0.017)">
                <path id="패스_7794" data-name="패스 7794" d="M125.906,273.942a1.571,1.571,0,0,0,.3-.012,1.039,1.039,0,0,0,.575-.267,1.206,1.206,0,0,0,.364-.732h-.012a.807.807,0,0,1-.647.3.8.8,0,0,1-.812-.842.943.943,0,0,1,.94-.977c.563,0,.909.457.909,1.159a1.737,1.737,0,0,1-.474,1.291,1.374,1.374,0,0,1-.8.368,1.735,1.735,0,0,1-.342.021Zm.135-1.582a.529.529,0,0,0,.529.584.615.615,0,0,0,.541-.288.244.244,0,0,0,.034-.136c0-.47-.173-.829-.563-.829C126.265,271.691,126.041,271.971,126.041,272.36Z" transform="translate(-125.673 -271.408)" fill="#fff"/>
              </g>
            </g>
          </g>
        </g>
        <g id="그룹_433" data-name="그룹 433">
          <g id="그룹_431" data-name="그룹 431">
            <g id="그룹_428" data-name="그룹 428">
              <path id="패스_7795" data-name="패스 7795" d="M99.381,244.717H97a27.8,27.8,0,0,1-27.769-27.769v-38.29A27.8,27.8,0,0,1,97,150.889h2.383a27.8,27.8,0,0,1,27.769,27.769v38.29a27.8,27.8,0,0,1-27.769,27.769ZM97,151.386a27.3,27.3,0,0,0-27.272,27.272v38.29A27.3,27.3,0,0,0,97,244.22h2.383a27.3,27.3,0,0,0,27.272-27.272v-38.29a27.3,27.3,0,0,0-27.272-27.272Z" transform="translate(-69.229 -150.889)" fill="#fff"/>
            </g>
            <g id="그룹_429" data-name="그룹 429" transform="translate(8.507 11.776)">
              <path id="패스_7796" data-name="패스 7796" d="M107.993,244.862H105.61A19.294,19.294,0,0,1,86.347,225.6V193.85a19.293,19.293,0,0,1,19.263-19.263h2.383a19.294,19.294,0,0,1,19.263,19.263V225.6a19.294,19.294,0,0,1-19.263,19.263Zm-2.383-69.9a18.92,18.92,0,0,0-18.89,18.89V225.6a18.921,18.921,0,0,0,18.89,18.89h2.383a18.921,18.921,0,0,0,18.89-18.89V193.85a18.921,18.921,0,0,0-18.89-18.89Z" transform="translate(-86.347 -174.587)" fill="#fff"/>
            </g>
            <g id="그룹_430" data-name="그룹 430" transform="translate(17.013 23.553)">
              <path id="패스_7797" data-name="패스 7797" d="M116.6,245.007h-2.383a10.787,10.787,0,0,1-10.756-10.756V209.042a10.787,10.787,0,0,1,10.756-10.757H116.6a10.787,10.787,0,0,1,10.756,10.757v25.209A10.787,10.787,0,0,1,116.6,245.007Zm-2.383-46.474a10.539,10.539,0,0,0-10.508,10.508v25.209a10.539,10.539,0,0,0,10.508,10.508H116.6a10.539,10.539,0,0,0,10.508-10.508V209.042A10.539,10.539,0,0,0,116.6,198.533Z" transform="translate(-103.465 -198.285)" fill="#fff"/>
            </g>
          </g>
          <g id="그룹_432" data-name="그룹 432" transform="translate(24.918 42.871)">
            <path id="패스_7798" data-name="패스 7798" d="M123.415,245.245a4.043,4.043,0,1,1,4.043-4.043A4.047,4.047,0,0,1,123.415,245.245Zm0-7.962a3.919,3.919,0,1,0,3.919,3.919A3.923,3.923,0,0,0,123.415,237.283Z" transform="translate(-119.372 -237.159)" fill="#fff"/>
          </g>
          <circle id="타원_143" data-name="타원 143" cx="2.405" cy="2.405" r="2.405" transform="translate(26.556 44.509)" fill="#fff"/>
        </g>
      </g>
      <g id="그룹_443" data-name="그룹 443" transform="translate(38.853 7.627)">
        <g id="그룹_436" data-name="그룹 436" transform="translate(1.604 1.604)">
          <g id="그룹_435" data-name="그룹 435">
            <path id="패스_7799" data-name="패스 7799" d="M122.49,58.489a4.956,4.956,0,1,1,4.956-4.956A4.962,4.962,0,0,1,122.49,58.489Zm0-9.415a4.459,4.459,0,1,0,4.459,4.459A4.464,4.464,0,0,0,122.49,49.074Z" transform="translate(-117.534 -48.577)" fill="#fff"/>
          </g>
        </g>
        <g id="그룹_438" data-name="그룹 438" transform="translate(3.43 3.43)">
          <g id="그룹_437" data-name="그룹 437">
            <path id="패스_7800" data-name="패스 7800" d="M124.339,58.511a3.129,3.129,0,1,1,3.13-3.129A3.133,3.133,0,0,1,124.339,58.511Zm-2.881-3.129a2.881,2.881,0,1,0,2.881-2.881A2.884,2.884,0,0,0,121.457,55.382Z" transform="translate(-121.209 -52.252)" fill="#fff"/>
          </g>
        </g>
        <g id="그룹_439" data-name="그룹 439" transform="translate(4.932 4.932)">
          <path id="패스_7801" data-name="패스 7801" d="M125.859,58.53a1.627,1.627,0,1,1,1.627-1.627A1.629,1.629,0,0,1,125.859,58.53Zm0,0a1.627,1.627,0,1,1,1.627-1.627A1.629,1.629,0,0,1,125.859,58.53Z" transform="translate(-124.232 -55.275)" fill="#fff"/>
        </g>
        <g id="그룹_442" data-name="그룹 442">
          <g id="그룹_440" data-name="그룹 440" transform="translate(6.435)">
            <path id="패스_7802" data-name="패스 7802" d="M127.381,58.469a.124.124,0,0,1-.124-.124V45.474a.124.124,0,1,1,.248,0V58.345A.124.124,0,0,1,127.381,58.469Z" transform="translate(-127.257 -45.35)" fill="#fff"/>
          </g>
          <g id="그룹_441" data-name="그룹 441" transform="translate(0 6.435)">
            <path id="패스_7803" data-name="패스 7803" d="M127.3,58.548H114.431a.124.124,0,0,1,0-.248H127.3a.124.124,0,1,1,0,.248Z" transform="translate(-114.307 -58.3)" fill="#fff"/>
          </g>
        </g>
      </g>
    </g>
  </g>
</svg>
