<svg xmlns="http://www.w3.org/2000/svg" width="97.073" height="97.073" viewBox="0 0 97.073 97.073">
  <g id="그룹_975" data-name="그룹 975" transform="translate(0 0)">
    <g id="그룹_974" data-name="그룹 974" transform="translate(0 0)">
      <path id="패스_8391" data-name="패스 8391" d="M54.216,10.408A48.738,48.738,0,0,0,13.355,41.13a49.989,49.989,0,0,0-3.241,14.593L10,57.011H21.693l.322-2.615A36.879,36.879,0,0,1,54.234,22.2l2.6-.322V10.2l-.417.019C56.167,10.237,55.182,10.313,54.216,10.408Z" transform="translate(-10 -10.18)" fill="#fff"/>
      <path id="패스_8392" data-name="패스 8392" d="M517.22,15.856v5.837l2.616.322a35.937,35.937,0,0,1,11.314,3.241,36.854,36.854,0,0,1,20.961,29.528l.228,2.046h11.712l-.1-.815c-.056-.436-.152-1.478-.227-2.312-.057-.834-.3-2.635-.568-4a48.584,48.584,0,0,0-38.17-38.719,59.952,59.952,0,0,0-6.481-.872L517.221,10v5.856Z" transform="translate(-466.978 -10)" fill="#fff"/>
      <path id="패스_8393" data-name="패스 8393" d="M191.327,163.572a33.262,33.262,0,0,0-25.377,18.744,34.827,34.827,0,0,0-3.127,11.22l-.133,1.384h8.357l.228-1.573A24.244,24.244,0,0,1,178.7,178.7a23.945,23.945,0,0,1,14.138-6.9l1.554-.228v-8.3l-.7.019C193.3,163.307,192.236,163.421,191.327,163.572Z" transform="translate(-147.565 -148.088)" fill="#fff"/>
      <path id="패스_8394" data-name="패스 8394" d="M517.22,166.869v4.188l1.1.114a25.917,25.917,0,0,1,12.641,5.231,25.006,25.006,0,0,1,9.381,16.412l.228,1.573h8.357L548.795,193a43.349,43.349,0,0,0-1.629-7.638,43.521,43.521,0,0,0-3.772-7.657,34.2,34.2,0,0,0-17.152-13.247,41.425,41.425,0,0,0-7.637-1.649l-1.384-.133v4.189Z" transform="translate(-466.978 -147.556)" fill="#fff"/>
      <path id="패스_8395" data-name="패스 8395" d="M298.937,282.259a21.885,21.885,0,0,0-15.977,14.157,22.3,22.3,0,0,0-1.081,4.908v.455h8.32l.208-1.1A13.6,13.6,0,0,1,300.7,290.408l1.081-.208v-8.32l-.606.019A16.623,16.623,0,0,0,298.937,282.259Z" transform="translate(-254.949 -254.949)" fill="#fff"/>
      <path id="패스_8396" data-name="패스 8396" d="M517.22,286.021v4.169l1.1.208a13.638,13.638,0,0,1,10.367,10.746l.133.625h8.3v-.455a22.879,22.879,0,0,0-1.023-4.738,21.965,21.965,0,0,0-13.513-13.627,22.3,22.3,0,0,0-4.909-1.081h-.455Z" transform="translate(-466.978 -254.94)" fill="#fff"/>
      <path id="패스_8397" data-name="패스 8397" d="M407.057,400.944a10.35,10.35,0,0,0-6.027,5.269,13.9,13.9,0,0,0-.778,1.99l-.133.625h8.188v-4.075c0-3.146-.056-4.075-.228-4.055A6.052,6.052,0,0,0,407.057,400.944Z" transform="translate(-361.477 -361.997)" fill="#fff"/>
      <path id="패스_8398" data-name="패스 8398" d="M517.22,404.223v4.094h8.188l-.133-.625a10.6,10.6,0,0,0-7.429-7.429l-.626-.133v4.093Z" transform="translate(-466.978 -361.486)" fill="#fff"/>
      <path id="패스_8399" data-name="패스 8399" d="M10.114,518.49c.815,9.343,3.279,16.6,8.055,23.785A48.268,48.268,0,0,0,49.706,563.16c1.365.266,3.165.512,4,.569.834.076,1.876.17,2.331.227l.8.1V552.339l-2.028-.228A36.859,36.859,0,0,1,25.257,531.15a35.878,35.878,0,0,1-3.242-11.334l-.322-2.6H10Z" transform="translate(-10 -466.978)" fill="#fff"/>
      <path id="패스_8400" data-name="패스 8400" d="M162.822,518.585a33.562,33.562,0,0,0,26.534,29.622c1.27.247,2.918.512,3.677.587l1.365.133V540.57l-1.554-.228a25,25,0,0,1-16.431-9.381,25.9,25.9,0,0,1-5.232-12.66l-.114-1.081H162.69Z" transform="translate(-147.565 -466.978)" fill="#fff"/>
      <path id="패스_8401" data-name="패스 8401" d="M281.88,517.675a22.316,22.316,0,0,0,1.081,4.909A21.965,21.965,0,0,0,296.588,536.1a22.885,22.885,0,0,0,4.738,1.023h.455v-8.3l-.606-.133A13.632,13.632,0,0,1,290.409,518.3l-.208-1.081h-8.32v.455Z" transform="translate(-254.949 -466.978)" fill="#fff"/>
      <path id="패스_8402" data-name="패스 8402" d="M400.244,517.817a10.56,10.56,0,0,0,7.448,7.448l.606.133V517.21H400.11Z" transform="translate(-361.468 -466.969)" fill="#fff"/>
      <path id="패스_8403" data-name="패스 8403" d="M517.22,521.314v4.094l.626-.133a10.578,10.578,0,0,0,7.429-7.448l.133-.607H517.22v4.094Z" transform="translate(-466.978 -466.978)" fill="#fff"/>
      <path id="패스_8404" data-name="패스 8404" d="M528.668,517.93a13.683,13.683,0,0,1-10.537,10.689l-.91.209v8.3h.455a22.881,22.881,0,0,0,4.738-1.023,21.964,21.964,0,0,0,14.441-16.564,14.442,14.442,0,0,0,.265-1.857v-.455H528.8Z" transform="translate(-466.978 -466.987)" fill="#fff"/>
      <path id="패스_8405" data-name="패스 8405" d="M540.341,518.765a24.362,24.362,0,0,1-6.709,13.968,24.646,24.646,0,0,1-14.839,7.6l-1.573.228v8.357l1.384-.133a33.741,33.741,0,0,0,27.045-18.914,35.61,35.61,0,0,0,3.146-11.3l.133-1.365H540.57Z" transform="translate(-466.978 -466.969)" fill="#fff"/>
      <path id="패스_8406" data-name="패스 8406" d="M552.281,517.409c0,.114-.1,1.023-.208,2.047a36.809,36.809,0,0,1-32.617,32.617c-1.023.114-1.934.208-2.047.208-.133,0-.189,1.934-.189,5.894v5.876l.815-.1c.436-.056,1.478-.152,2.312-.227a49.8,49.8,0,0,0,13.134-3.185,49.693,49.693,0,0,0,27.064-27.064,49.852,49.852,0,0,0,3.185-13.134c.076-.834.17-1.876.227-2.331l.1-.8h-5.875C554.215,517.22,552.281,517.276,552.281,517.409Z" transform="translate(-466.978 -466.978)" fill="#fff"/>
    </g>
  </g>
</svg>
