<svg xmlns="http://www.w3.org/2000/svg" width="189.34" height="189.342" viewBox="0 0 189.34 189.342">
  <path id="패스_367" data-name="패스 367" d="M1405.636,1556.1l-.1-14.642-19.866-4.075a72.916,72.916,0,0,0-4.259-15.77l15.151-13.815-7.406-12.631-19.535,6.5a73.823,73.823,0,0,0-11.452-11.083l6.385-20.08-12.73-7.234-14.224,16.023a72.981,72.981,0,0,0-14.691-3.531l-4.725-21.552-14.641.1L1299,1476.459a72.809,72.809,0,0,0-13.454,3.991l-15.66-17.173-12.631,7.406,7.51,22.568a73.893,73.893,0,0,0-9.013,9.4l-23.16-7.363-7.235,12.73,18.382,16.318a72.837,72.837,0,0,0-3.058,11.975l-24.382,5.345.1,14.642,24.376,5a72.9,72.9,0,0,0,3.1,11.786l-18.5,16.872,7.4,12.631,23.321-7.758a73.921,73.921,0,0,0,8.72,9.029l-7.438,23.392,12.729,7.237,15.754-17.747a72.887,72.887,0,0,0,12.848,3.823l5.038,22.981,14.641-.1,4.546-22.155a72.97,72.97,0,0,0,14.063-3.326l15.05,16.506,12.632-7.407L1357.9,1606.7a73.9,73.9,0,0,0,11.177-10.679l20.264,6.443,7.236-12.729-15.4-13.672a72.881,72.881,0,0,0,4.357-15.561Zm-136.793-7.27a44.242,44.242,0,1,1,44.536,43.946A44.243,44.243,0,0,1,1268.843,1548.826Z" transform="translate(-1216.296 -1454.204)" fill="#fff" opacity="0.03"/>
</svg>
