<svg xmlns="http://www.w3.org/2000/svg" width="629.24" height="629.24" viewBox="0 0 629.24 629.24">
  <g id="그룹_693" data-name="그룹 693" transform="translate(-572.38 -152.38)">
    <circle id="타원_144" data-name="타원 144" cx="314" cy="314" r="314" transform="translate(573 153)" fill="#fff" stroke="#1a1311" stroke-width="1.24"/>
    <circle id="타원_145" data-name="타원 145" cx="281.691" cy="281.691" r="281.691" transform="translate(605.309 185.309)" fill="#fff" stroke="#1a1311" stroke-width="1.24"/>
    <circle id="타원_146" data-name="타원 146" cx="249.383" cy="249.383" r="249.383" transform="translate(637.617 217.617)" fill="#fff" stroke="#1a1311" stroke-width="1.24"/>
    <circle id="타원_147" data-name="타원 147" cx="217.074" cy="217.074" r="217.074" transform="translate(669.926 249.926)" fill="#fff" stroke="#1a1311" stroke-width="1.24"/>
    <circle id="타원_148" data-name="타원 148" cx="184.765" cy="184.765" r="184.765" transform="translate(702.235 282.235)" fill="#fff" stroke="#1a1311" stroke-width="1.24"/>
    <circle id="타원_149" data-name="타원 149" cx="152.457" cy="152.457" r="152.457" transform="translate(734.543 314.543)" fill="#fff" stroke="#1a1311" stroke-width="1.24"/>
    <circle id="타원_150" data-name="타원 150" cx="120.148" cy="120.148" r="120.148" transform="translate(766.852 346.852)" fill="#131414"/>
    <circle id="타원_151" data-name="타원 151" cx="87.839" cy="87.839" r="87.839" transform="translate(799.161 379.161)" fill="#131313" stroke="#fff" stroke-width="0.827"/>
    <circle id="타원_152" data-name="타원 152" cx="55.531" cy="55.531" r="55.531" transform="translate(831.469 411.469)" fill="#131313" stroke="#fff" stroke-width="0.827"/>
    <circle id="타원_153" data-name="타원 153" cx="23.222" cy="23.222" r="23.222" transform="translate(863.778 443.778)" fill="#131313" stroke="#fff" stroke-width="0.827"/>
    <circle id="타원_154" data-name="타원 154" cx="10.224" cy="10.224" r="10.224" transform="translate(876.776 456.776)" fill="#131313" stroke="#fff" stroke-width="0.827"/>
    <g id="그룹_661" data-name="그룹 661" transform="translate(883.789 389.535)">
      <path id="패스_7992" data-name="패스 7992" d="M956.042,452.228a2.885,2.885,0,0,1,2-2.7l-.015-.047a2.5,2.5,0,0,1-1.6-2.267,2.827,2.827,0,0,1,3.121-2.686c1.959,0,2.936,1.227,2.936,2.484a2.566,2.566,0,0,1-1.662,2.361v.045a2.8,2.8,0,0,1,2.033,2.61c0,1.755-1.507,2.936-3.432,2.936C957.315,454.963,956.042,453.705,956.042,452.228Zm5.436-.062c0-1.227-.854-1.817-2.222-2.205a2.193,2.193,0,0,0-1.818,2.081,1.868,1.868,0,0,0,2.02,1.925A1.827,1.827,0,0,0,961.478,452.167Zm-3.759-5.048c0,1.009.761,1.553,1.926,1.864a1.988,1.988,0,0,0,1.538-1.833,1.57,1.57,0,0,0-1.709-1.646A1.606,1.606,0,0,0,957.719,447.119Z" transform="translate(-956.042 -444.526)" fill="#fff"/>
    </g>
    <g id="그룹_662" data-name="그룹 662" transform="translate(812.051 460.936)">
      <path id="패스_7993" data-name="패스 7993" d="M867.626,540.228a2.883,2.883,0,0,1,2-2.7l-.015-.047a2.5,2.5,0,0,1-1.6-2.267,2.828,2.828,0,0,1,3.122-2.686c1.958,0,2.936,1.227,2.936,2.484a2.565,2.565,0,0,1-1.662,2.361v.045a2.8,2.8,0,0,1,2.033,2.61c0,1.755-1.506,2.936-3.431,2.936C868.9,542.963,867.626,541.705,867.626,540.228Zm5.435-.062c0-1.227-.854-1.817-2.222-2.205a2.193,2.193,0,0,0-1.818,2.081,1.868,1.868,0,0,0,2.02,1.925A1.827,1.827,0,0,0,873.061,540.167Zm-3.759-5.048c0,1.009.762,1.553,1.926,1.864a1.989,1.989,0,0,0,1.538-1.833,1.57,1.57,0,0,0-1.709-1.646A1.607,1.607,0,0,0,869.3,535.119Z" transform="translate(-867.626 -532.526)" fill="#fff"/>
    </g>
    <g id="그룹_663" data-name="그룹 663" transform="translate(955.122 460.936)">
      <path id="패스_7994" data-name="패스 7994" d="M1043.959,540.228a2.884,2.884,0,0,1,2-2.7l-.014-.047a2.5,2.5,0,0,1-1.6-2.267,2.827,2.827,0,0,1,3.121-2.686c1.958,0,2.936,1.227,2.936,2.484a2.566,2.566,0,0,1-1.662,2.361v.045a2.8,2.8,0,0,1,2.034,2.61c0,1.755-1.507,2.936-3.432,2.936C1045.232,542.963,1043.959,541.705,1043.959,540.228Zm5.435-.062c0-1.227-.854-1.817-2.221-2.205a2.192,2.192,0,0,0-1.817,2.081,1.868,1.868,0,0,0,2.02,1.925A1.826,1.826,0,0,0,1049.394,540.167Zm-3.759-5.048c0,1.009.762,1.553,1.926,1.864a1.988,1.988,0,0,0,1.538-1.833,1.57,1.57,0,0,0-1.709-1.646A1.607,1.607,0,0,0,1045.635,535.119Z" transform="translate(-1043.959 -532.526)" fill="#fff"/>
    </g>
    <g id="그룹_664" data-name="그룹 664" transform="translate(883.789 533.132)">
      <path id="패스_7995" data-name="패스 7995" d="M956.042,629.209a2.883,2.883,0,0,1,2-2.7l-.015-.047a2.5,2.5,0,0,1-1.6-2.268,2.827,2.827,0,0,1,3.121-2.686c1.959,0,2.936,1.228,2.936,2.484a2.566,2.566,0,0,1-1.662,2.361v.045a2.8,2.8,0,0,1,2.033,2.611c0,1.754-1.507,2.935-3.432,2.935C957.315,631.944,956.042,630.686,956.042,629.209Zm5.436-.062c0-1.227-.854-1.817-2.222-2.205a2.194,2.194,0,0,0-1.818,2.082,1.868,1.868,0,0,0,2.02,1.925A1.828,1.828,0,0,0,961.478,629.148Zm-3.759-5.048c0,1.009.761,1.553,1.926,1.864a1.988,1.988,0,0,0,1.538-1.833,1.57,1.57,0,0,0-1.709-1.646A1.606,1.606,0,0,0,957.719,624.1Z" transform="translate(-956.042 -621.507)" fill="#fff"/>
    </g>
    <g id="그룹_665" data-name="그룹 665" transform="translate(884.005 357.656)">
      <path id="패스_7996" data-name="패스 7996" d="M962.676,405.235v.9l-4.395,9.2h-1.414l4.38-8.93v-.032h-4.938v-1.133Z" transform="translate(-956.309 -405.235)" fill="#fff"/>
    </g>
    <g id="그룹_666" data-name="그룹 666" transform="translate(779.609 461.105)">
      <path id="패스_7997" data-name="패스 7997" d="M834.009,532.735v.9l-4.394,9.2H828.2l4.381-8.93v-.032h-4.939v-1.133Z" transform="translate(-827.642 -532.735)" fill="#fff"/>
    </g>
    <g id="그룹_667" data-name="그룹 667" transform="translate(988.08 461.105)">
      <path id="패스_7998" data-name="패스 7998" d="M1090.947,532.735v.9l-4.394,9.2h-1.414l4.381-8.93v-.032h-4.939v-1.133Z" transform="translate(-1084.58 -532.735)" fill="#fff"/>
    </g>
    <g id="그룹_668" data-name="그룹 668" transform="translate(884.005 566.381)">
      <path id="패스_7999" data-name="패스 7999" d="M962.676,662.485v.9l-4.395,9.2h-1.414l4.38-8.93v-.032h-4.938v-1.133Z" transform="translate(-956.309 -662.485)" fill="#fff"/>
    </g>
    <g id="그룹_669" data-name="그룹 669" transform="translate(883.727 325.289)">
      <path id="패스_8000" data-name="패스 8000" d="M961.9,366.462a4.873,4.873,0,0,0-1.026.063,4.1,4.1,0,0,0-3.51,3.587h.046a3.077,3.077,0,0,1,5.482,2.1,3.375,3.375,0,0,1-3.354,3.557c-2.159,0-3.572-1.678-3.572-4.3a6.349,6.349,0,0,1,1.709-4.552,5.489,5.489,0,0,1,3.229-1.49,6.625,6.625,0,0,1,.995-.077Zm-.389,5.824a2.051,2.051,0,0,0-2.081-2.314,2.251,2.251,0,0,0-1.957,1.241,1.166,1.166,0,0,0-.155.607c.03,1.662.792,2.888,2.221,2.888C960.718,374.708,961.51,373.73,961.51,372.286Z" transform="translate(-955.966 -365.344)" fill="#070304"/>
    </g>
    <g id="그룹_670" data-name="그룹 670" transform="translate(747.513 460.869)">
      <path id="패스_8001" data-name="패스 8001" d="M794.017,533.562a4.875,4.875,0,0,0-1.026.062,4.1,4.1,0,0,0-3.51,3.587h.047a3.077,3.077,0,0,1,5.482,2.1,3.376,3.376,0,0,1-3.355,3.557c-2.159,0-3.572-1.678-3.572-4.3a6.35,6.35,0,0,1,1.709-4.552,5.49,5.49,0,0,1,3.23-1.49,6.624,6.624,0,0,1,.994-.077Zm-.389,5.824a2.051,2.051,0,0,0-2.081-2.314,2.249,2.249,0,0,0-1.956,1.241,1.159,1.159,0,0,0-.156.607c.03,1.662.792,2.888,2.221,2.888C792.836,541.808,793.628,540.83,793.628,539.386Z" transform="translate(-788.084 -532.444)" fill="#070304"/>
    </g>
    <g id="그룹_671" data-name="그룹 671" transform="translate(1019.862 460.869)">
      <path id="패스_8002" data-name="패스 8002" d="M1129.683,533.562a4.87,4.87,0,0,0-1.025.062,4.1,4.1,0,0,0-3.511,3.587h.047a3.077,3.077,0,0,1,5.482,2.1,3.376,3.376,0,0,1-3.355,3.557c-2.158,0-3.571-1.678-3.571-4.3a6.346,6.346,0,0,1,1.709-4.552,5.489,5.489,0,0,1,3.229-1.49,6.637,6.637,0,0,1,.994-.077Zm-.389,5.824a2.051,2.051,0,0,0-2.08-2.314,2.25,2.25,0,0,0-1.957,1.241,1.165,1.165,0,0,0-.155.607c.03,1.662.792,2.888,2.22,2.888C1128.5,541.808,1129.294,540.83,1129.294,539.386Z" transform="translate(-1123.751 -532.444)" fill="#070304"/>
    </g>
    <g id="그룹_672" data-name="그룹 672" transform="translate(883.727 597.91)">
      <path id="패스_8003" data-name="패스 8003" d="M961.9,702.462a4.877,4.877,0,0,0-1.026.063,4.1,4.1,0,0,0-3.51,3.587h.046a3.077,3.077,0,0,1,5.482,2.1,3.375,3.375,0,0,1-3.354,3.557c-2.159,0-3.572-1.678-3.572-4.3a6.349,6.349,0,0,1,1.709-4.552,5.49,5.49,0,0,1,3.229-1.49,6.625,6.625,0,0,1,.995-.077Zm-.389,5.824a2.051,2.051,0,0,0-2.081-2.314,2.251,2.251,0,0,0-1.957,1.241,1.166,1.166,0,0,0-.155.607c.03,1.662.792,2.888,2.221,2.888C960.718,710.708,961.51,709.73,961.51,708.286Z" transform="translate(-955.966 -701.344)" fill="#070304"/>
    </g>
    <g id="그룹_673" data-name="그룹 673" transform="translate(884.021 292.399)">
      <path id="패스_8004" data-name="패스 8004" d="M962.4,325.956H958.55l-.388,2.593a5.552,5.552,0,0,1,.823-.061,4.272,4.272,0,0,1,2.174.543,2.879,2.879,0,0,1,1.443,2.594,3.5,3.5,0,0,1-3.758,3.448,4.945,4.945,0,0,1-2.516-.621l.342-1.041a4.516,4.516,0,0,0,2.159.56,2.228,2.228,0,0,0,2.392-2.19c-.016-1.3-.886-2.238-2.9-2.238a10.5,10.5,0,0,0-1.4.11l.654-4.845H962.4Z" transform="translate(-956.328 -324.807)" fill="#070304"/>
    </g>
    <g id="그룹_674" data-name="그룹 674" transform="translate(715.033 460.973)">
      <path id="패스_8005" data-name="패스 8005" d="M754.125,533.721h-3.851l-.389,2.593a5.55,5.55,0,0,1,.823-.061,4.269,4.269,0,0,1,2.174.543,2.878,2.878,0,0,1,1.444,2.594,3.5,3.5,0,0,1-3.758,3.448,4.94,4.94,0,0,1-2.516-.621l.342-1.041a4.52,4.52,0,0,0,2.159.56,2.228,2.228,0,0,0,2.392-2.19c-.015-1.3-.885-2.238-2.9-2.238a10.5,10.5,0,0,0-1.4.11l.654-4.846h4.829Z" transform="translate(-748.053 -532.572)" fill="#070304"/>
    </g>
    <g id="그룹_675" data-name="그룹 675" transform="translate(1052.833 460.973)">
      <path id="패스_8006" data-name="패스 8006" d="M1170.458,533.721h-3.851l-.389,2.593a5.568,5.568,0,0,1,.823-.061,4.273,4.273,0,0,1,2.175.543,2.879,2.879,0,0,1,1.443,2.594,3.5,3.5,0,0,1-3.758,3.448,4.943,4.943,0,0,1-2.516-.621l.342-1.041a4.521,4.521,0,0,0,2.16.56,2.228,2.228,0,0,0,2.392-2.19c-.016-1.3-.886-2.238-2.905-2.238a10.493,10.493,0,0,0-1.4.11l.653-4.846h4.829Z" transform="translate(-1164.386 -532.572)" fill="#070304"/>
    </g>
    <g id="그룹_676" data-name="그룹 676" transform="translate(884.021 630.672)">
      <path id="패스_8007" data-name="패스 8007" d="M962.4,742.873H958.55l-.388,2.593a5.547,5.547,0,0,1,.823-.061,4.28,4.28,0,0,1,2.174.542,2.88,2.88,0,0,1,1.443,2.595,3.5,3.5,0,0,1-3.758,3.447,4.952,4.952,0,0,1-2.516-.621l.342-1.041a4.526,4.526,0,0,0,2.159.56,2.228,2.228,0,0,0,2.392-2.191c-.016-1.3-.886-2.237-2.9-2.237a10.374,10.374,0,0,0-1.4.109l.654-4.846H962.4Z" transform="translate(-956.328 -741.723)" fill="#070304"/>
    </g>
    <g id="그룹_677" data-name="그룹 677" transform="translate(883.462 260.106)">
      <path id="패스_8008" data-name="패스 8008" d="M960.329,295.1v-2.749H955.64v-.9l4.5-6.446h1.477v6.275h1.413v1.072h-1.413V295.1Zm0-3.821V287.91c0-.527.015-1.056.047-1.583h-.047c-.31.589-.558,1.025-.839,1.49l-2.469,3.432v.032Z" transform="translate(-955.64 -285.006)" fill="#070304"/>
    </g>
    <g id="그룹_678" data-name="그룹 678" transform="translate(681.97 460.996)">
      <path id="패스_8009" data-name="패스 8009" d="M711.993,542.7v-2.748H707.3v-.9l4.5-6.446h1.476v6.274H714.7v1.073h-1.413V542.7Zm0-3.821V535.5c0-.527.016-1.056.047-1.584h-.047c-.31.59-.558,1.026-.838,1.491l-2.47,3.432v.031Z" transform="translate(-707.304 -532.6)" fill="#070304"/>
    </g>
    <g id="그룹_679" data-name="그룹 679" transform="translate(1084.342 460.996)">
      <path id="패스_8010" data-name="패스 8010" d="M1207.91,542.7v-2.748h-4.689v-.9l4.5-6.446h1.477v6.274h1.413v1.073H1209.2V542.7Zm0-3.821V535.5c0-.527.015-1.056.047-1.584h-.047c-.31.59-.558,1.026-.839,1.491l-2.469,3.432v.031Z" transform="translate(-1203.221 -532.6)" fill="#070304"/>
    </g>
    <g id="그룹_680" data-name="그룹 680" transform="translate(883.462 663.297)">
      <path id="패스_8011" data-name="패스 8011" d="M960.329,792.029V789.28H955.64v-.9l4.5-6.445h1.477v6.275h1.413v1.072h-1.413v2.749Zm0-3.821v-3.371q0-.79.047-1.583h-.047c-.31.589-.558,1.025-.839,1.491l-2.469,3.432v.032Z" transform="translate(-955.64 -781.933)" fill="#070304"/>
    </g>
    <g id="그룹_681" data-name="그룹 681" transform="translate(884.125 227.804)">
      <path id="패스_8012" data-name="패스 8012" d="M956.829,253.891a4.553,4.553,0,0,0,2.235.638c1.757,0,2.3-1.119,2.285-1.958-.016-1.413-1.29-2.018-2.61-2.018h-.761v-1.026h.761c.994,0,2.252-.512,2.252-1.709,0-.807-.513-1.522-1.771-1.522a3.708,3.708,0,0,0-2.018.668l-.358-.994a4.807,4.807,0,0,1,2.64-.776c1.988,0,2.889,1.181,2.889,2.407a2.507,2.507,0,0,1-1.863,2.376v.031a2.63,2.63,0,0,1,2.252,2.593c0,1.615-1.258,3.03-3.681,3.03a5.133,5.133,0,0,1-2.625-.684Z" transform="translate(-956.456 -245.195)" fill="#070304"/>
    </g>
    <g id="그룹_682" data-name="그룹 682" transform="translate(650.691 460.968)">
      <path id="패스_8013" data-name="패스 8013" d="M669.126,541.263a4.553,4.553,0,0,0,2.235.638c1.757,0,2.3-1.12,2.285-1.958-.015-1.413-1.29-2.019-2.61-2.019h-.761V536.9h.761c.994,0,2.252-.513,2.252-1.709,0-.807-.513-1.522-1.771-1.522a3.7,3.7,0,0,0-2.018.668l-.358-.994a4.8,4.8,0,0,1,2.64-.776c1.988,0,2.888,1.181,2.888,2.406a2.506,2.506,0,0,1-1.863,2.377v.032a2.63,2.63,0,0,1,2.252,2.593c0,1.615-1.258,3.029-3.681,3.029a5.133,5.133,0,0,1-2.625-.683Z" transform="translate(-668.753 -532.566)" fill="#070304"/>
    </g>
    <g id="그룹_683" data-name="그룹 683" transform="translate(1117.229 460.968)">
      <path id="패스_8014" data-name="패스 8014" d="M1244.126,541.263a4.555,4.555,0,0,0,2.235.638c1.757,0,2.3-1.12,2.285-1.958-.016-1.413-1.29-2.019-2.61-2.019h-.761V536.9h.761c.994,0,2.253-.513,2.253-1.709,0-.807-.513-1.522-1.771-1.522a3.7,3.7,0,0,0-2.018.668l-.358-.994a4.8,4.8,0,0,1,2.64-.776c1.988,0,2.889,1.181,2.889,2.406a2.507,2.507,0,0,1-1.863,2.377v.032a2.63,2.63,0,0,1,2.251,2.593c0,1.615-1.257,3.029-3.681,3.029a5.133,5.133,0,0,1-2.625-.683Z" transform="translate(-1243.753 -532.566)" fill="#070304"/>
    </g>
    <g id="그룹_684" data-name="그룹 684" transform="translate(884.125 695.259)">
      <path id="패스_8015" data-name="패스 8015" d="M956.829,830.022a4.552,4.552,0,0,0,2.235.638c1.757,0,2.3-1.119,2.285-1.958-.016-1.413-1.29-2.019-2.61-2.019h-.761v-1.025h.761c.994,0,2.252-.513,2.252-1.709,0-.807-.513-1.522-1.771-1.522a3.7,3.7,0,0,0-2.018.668l-.358-.994a4.8,4.8,0,0,1,2.64-.777c1.988,0,2.889,1.181,2.889,2.407a2.508,2.508,0,0,1-1.863,2.377v.031a2.63,2.63,0,0,1,2.252,2.593c0,1.615-1.258,3.029-3.681,3.029a5.134,5.134,0,0,1-2.625-.683Z" transform="translate(-956.456 -821.325)" fill="#070304"/>
    </g>
    <g id="그룹_685" data-name="그룹 685" transform="translate(883.871 195.618)">
      <path id="패스_8016" data-name="패스 8016" d="M956.144,215.791v-.839l1.071-1.041c2.579-2.454,3.744-3.757,3.759-5.28a1.8,1.8,0,0,0-2-1.972,3.432,3.432,0,0,0-2.143.854l-.436-.963a4.427,4.427,0,0,1,2.858-1.025,2.84,2.84,0,0,1,3.091,2.935c0,1.864-1.35,3.37-3.479,5.421l-.807.745v.032h4.536v1.133Z" transform="translate(-956.144 -205.526)" fill="#070304"/>
    </g>
    <g id="그룹_686" data-name="그룹 686" transform="translate(618.086 461.078)">
      <path id="패스_8017" data-name="패스 8017" d="M628.568,542.967v-.839l1.071-1.041c2.578-2.454,3.744-3.758,3.759-5.28a1.8,1.8,0,0,0-2-1.972,3.435,3.435,0,0,0-2.144.854l-.436-.962a4.43,4.43,0,0,1,2.858-1.026,2.84,2.84,0,0,1,3.091,2.935c0,1.865-1.351,3.371-3.479,5.422l-.807.745v.031h4.535v1.134Z" transform="translate(-628.568 -532.701)" fill="#070304"/>
    </g>
    <g id="그룹_687" data-name="그룹 687" transform="translate(1148.384 461.078)">
      <path id="패스_8018" data-name="패스 8018" d="M1282.151,542.967v-.839l1.071-1.041c2.579-2.454,3.744-3.758,3.759-5.28a1.8,1.8,0,0,0-2-1.972,3.433,3.433,0,0,0-2.143.854l-.436-.962a4.428,4.428,0,0,1,2.858-1.026,2.84,2.84,0,0,1,3.09,2.935c0,1.865-1.35,3.371-3.479,5.422l-.807.745v.031h4.536v1.134Z" transform="translate(-1282.151 -532.701)" fill="#070304"/>
    </g>
    <g id="그룹_688" data-name="그룹 688" transform="translate(883.871 727.243)">
      <path id="패스_8019" data-name="패스 8019" d="M956.144,871.01v-.839l1.071-1.041c2.579-2.453,3.744-3.757,3.759-5.28a1.8,1.8,0,0,0-2-1.972,3.432,3.432,0,0,0-2.143.854l-.436-.963a4.427,4.427,0,0,1,2.858-1.025,2.84,2.84,0,0,1,3.091,2.935c0,1.864-1.35,3.37-3.479,5.422l-.807.744v.032h4.536v1.133Z" transform="translate(-956.144 -860.745)" fill="#070304"/>
    </g>
    <g id="그룹_689" data-name="그룹 689" transform="translate(885.103 162.984)">
      <path id="패스_8020" data-name="패스 8020" d="M959.712,166.578h-.031l-1.755.949-.265-1.041,2.206-1.181h1.164v10.1h-1.32Z" transform="translate(-957.662 -165.305)" fill="#070304"/>
    </g>
    <g id="그룹_690" data-name="그룹 690" transform="translate(586.925 461.162)">
      <path id="패스_8021" data-name="패스 8021" d="M592.212,534.078h-.031l-1.755.949-.265-1.041,2.206-1.181h1.164v10.1h-1.32Z" transform="translate(-590.162 -532.805)" fill="#070304"/>
    </g>
    <g id="그룹_691" data-name="그룹 691" transform="translate(1182.47 461.162)">
      <path id="패스_8022" data-name="패스 8022" d="M1326.212,534.078h-.031l-1.755.949-.265-1.041,2.206-1.181h1.164v10.1h-1.32Z" transform="translate(-1324.162 -532.805)" fill="#070304"/>
    </g>
    <g id="그룹_692" data-name="그룹 692" transform="translate(885.103 760.692)">
      <path id="패스_8023" data-name="패스 8023" d="M959.712,903.244h-.031l-1.755.948-.265-1.041,2.206-1.181h1.164v10.1h-1.32Z" transform="translate(-957.662 -901.971)" fill="#070304"/>
    </g>
  </g>
</svg>
