<svg xmlns="http://www.w3.org/2000/svg" width="629" height="629" viewBox="0 0 629 629">
  <g id="그룹_278" data-name="그룹 278" transform="translate(-661.263 263.737)">
    <g id="그룹_277" data-name="그룹 277" transform="translate(662 -263)">
      <g id="그룹_276" data-name="그룹 276" transform="translate(0)">
        <circle id="타원_107" data-name="타원 107" cx="282.417" cy="282.417" r="282.417" transform="translate(31.346 31.346)" fill="none" stroke="#f5e20d" stroke-width="1"/>
        <circle id="타원_108" data-name="타원 108" cx="314" cy="314" r="314" transform="translate(-0.237 -0.237)" fill="#fff" stroke="#161717" stroke-width="1"/>
        <circle id="타원_109" data-name="타원 109" cx="282.417" cy="282.417" r="282.417" transform="translate(31.346 31.346)" fill="#fff" stroke="#161717" stroke-width="1"/>
        <circle id="타원_110" data-name="타원 110" cx="219" cy="219" r="219" transform="translate(94.763 94.763)" fill="none" stroke="#f5e20d" stroke-width="1"/>
        <circle id="타원_111" data-name="타원 111" cx="251.071" cy="251.071" r="251.071" transform="translate(62.692 62.692)" fill="#fff" stroke="#161717" stroke-width="1"/>
        <circle id="타원_112" data-name="타원 112" cx="219" cy="219" r="219" transform="translate(94.763 94.763)" fill="#fff" stroke="#161717" stroke-width="1"/>
        <circle id="타원_113" data-name="타원 113" cx="187.775" cy="187.775" r="187.775" transform="translate(125.987 125.987)" fill="#fff" stroke="#161717" stroke-width="1"/>
        <circle id="타원_114" data-name="타원 114" cx="157.635" cy="157.635" r="157.635" transform="translate(156.128 156.128)" fill="#1e1e1e" stroke="#fff" stroke-width="1"/>
        <circle id="타원_115" data-name="타원 115" cx="126" cy="126" r="126" transform="translate(187.763 187.763)" fill="#1e1e1e" stroke="#fff" stroke-width="1"/>
        <circle id="타원_116" data-name="타원 116" cx="94" cy="94" r="94" transform="translate(219.763 219.763)" fill="#1e1e1e" stroke="#fff" stroke-width="1"/>
        <circle id="타원_117" data-name="타원 117" cx="63" cy="63" r="63" transform="translate(250.763 250.763)" fill="#fff" stroke="#161717" stroke-width="1"/>
        <circle id="타원_118" data-name="타원 118" cx="31.045" cy="31.045" r="31.045" transform="translate(282.718 282.718)" fill="#0054a3" stroke="#161717" stroke-width="1"/>
        <g id="그룹_240" data-name="그룹 240" transform="translate(265.09 308.251)">
          <path id="패스_289" data-name="패스 289" d="M323.072,370.721a6,6,0,0,0,1.164-.05,4.011,4.011,0,0,0,2.23-1.033,4.677,4.677,0,0,0,1.41-2.836h-.05a3.127,3.127,0,0,1-2.508,1.148,3.086,3.086,0,0,1-3.147-3.262,3.652,3.652,0,0,1,3.639-3.785c2.18,0,3.524,1.77,3.524,4.49a6.734,6.734,0,0,1-1.836,5,5.34,5.34,0,0,1-3.1,1.426,6.76,6.76,0,0,1-1.327.081Zm.524-6.13a2.049,2.049,0,0,0,2.048,2.261,2.381,2.381,0,0,0,2.1-1.115.941.941,0,0,0,.133-.524c0-1.818-.674-3.212-2.181-3.212C324.466,362,323.6,363.082,323.6,364.591Z" transform="translate(-322.171 -360.904)" fill="#070304"/>
        </g>
        <g id="그룹_241" data-name="그룹 241" transform="translate(310.187 353.149)">
          <path id="패스_290" data-name="패스 290" d="M372.946,420.375a5.979,5.979,0,0,0,1.163-.049,4.015,4.015,0,0,0,2.23-1.033,4.672,4.672,0,0,0,1.41-2.836h-.05a3.126,3.126,0,0,1-2.507,1.148,3.086,3.086,0,0,1-3.147-3.262,3.652,3.652,0,0,1,3.638-3.786c2.18,0,3.524,1.77,3.524,4.49a6.733,6.733,0,0,1-1.835,5,5.334,5.334,0,0,1-3.1,1.426,6.756,6.756,0,0,1-1.327.081Zm.524-6.129a2.049,2.049,0,0,0,2.048,2.261,2.382,2.382,0,0,0,2.1-1.115.948.948,0,0,0,.132-.524c0-1.818-.674-3.212-2.18-3.212C374.339,411.657,373.471,412.737,373.471,414.246Z" transform="translate(-372.045 -410.558)" fill="#070304"/>
        </g>
        <g id="그룹_242" data-name="그룹 242" transform="translate(310.187 261.145)">
          <path id="패스_291" data-name="패스 291" d="M372.946,318.625a5.976,5.976,0,0,0,1.163-.049,4.014,4.014,0,0,0,2.23-1.033,4.672,4.672,0,0,0,1.41-2.836h-.05a3.126,3.126,0,0,1-2.507,1.148,3.086,3.086,0,0,1-3.147-3.262,3.652,3.652,0,0,1,3.638-3.786c2.18,0,3.524,1.77,3.524,4.49a6.732,6.732,0,0,1-1.835,5,5.334,5.334,0,0,1-3.1,1.426,6.755,6.755,0,0,1-1.327.081Zm.524-6.129a2.049,2.049,0,0,0,2.048,2.261,2.382,2.382,0,0,0,2.1-1.115.948.948,0,0,0,.132-.524c0-1.818-.674-3.212-2.18-3.212C374.339,309.907,373.471,310.987,373.471,312.5Z" transform="translate(-372.045 -308.808)" fill="#070304"/>
        </g>
        <g id="그룹_243" data-name="그룹 243" transform="translate(355.85 308.251)">
          <path id="패스_292" data-name="패스 292" d="M423.447,370.721a6,6,0,0,0,1.164-.05,4.011,4.011,0,0,0,2.23-1.033,4.677,4.677,0,0,0,1.41-2.836h-.05a3.127,3.127,0,0,1-2.508,1.148,3.086,3.086,0,0,1-3.147-3.262,3.652,3.652,0,0,1,3.639-3.785c2.18,0,3.524,1.77,3.524,4.49a6.734,6.734,0,0,1-1.836,5,5.34,5.34,0,0,1-3.1,1.426,6.76,6.76,0,0,1-1.327.081Zm.524-6.13a2.049,2.049,0,0,0,2.048,2.261,2.381,2.381,0,0,0,2.1-1.115.941.941,0,0,0,.133-.524c0-1.818-.674-3.212-2.181-3.212C424.841,362,423.972,363.082,423.972,364.591Z" transform="translate(-422.546 -360.904)" fill="#070304"/>
        </g>
        <g id="그룹_244" data-name="그룹 244" transform="translate(232.465 308.21)">
          <path id="패스_293" data-name="패스 293" d="M286.09,368.987a3.042,3.042,0,0,1,2.113-2.851l-.015-.05a2.637,2.637,0,0,1-1.689-2.393c0-1.688,1.426-2.835,3.294-2.835,2.066,0,3.1,1.295,3.1,2.622a2.707,2.707,0,0,1-1.754,2.491v.048a2.953,2.953,0,0,1,2.146,2.754c0,1.852-1.59,3.1-3.621,3.1C287.433,371.872,286.09,370.545,286.09,368.987Zm5.735-.065c0-1.295-.9-1.917-2.344-2.327a2.315,2.315,0,0,0-1.918,2.2,1.97,1.97,0,0,0,2.131,2.031A1.927,1.927,0,0,0,291.825,368.922Zm-3.967-5.327c0,1.065.8,1.639,2.033,1.967a2.1,2.1,0,0,0,1.623-1.934,1.656,1.656,0,0,0-1.8-1.737A1.7,1.7,0,0,0,287.859,363.6Z" transform="translate(-286.09 -360.859)" fill="#fff"/>
        </g>
        <g id="그룹_245" data-name="그룹 245" transform="translate(310.185 229.935)">
          <path id="패스_294" data-name="패스 294" d="M372.043,282.42a3.043,3.043,0,0,1,2.113-2.851l-.015-.05a2.637,2.637,0,0,1-1.689-2.393c0-1.689,1.426-2.835,3.294-2.835,2.066,0,3.1,1.295,3.1,2.622a2.708,2.708,0,0,1-1.754,2.491v.048a2.953,2.953,0,0,1,2.146,2.754c0,1.852-1.59,3.1-3.621,3.1C373.386,285.3,372.043,283.978,372.043,282.42Zm5.735-.065c0-1.295-.9-1.917-2.344-2.327a2.315,2.315,0,0,0-1.918,2.2,1.971,1.971,0,0,0,2.131,2.032A1.927,1.927,0,0,0,377.778,282.355Zm-3.967-5.327c0,1.065.8,1.639,2.033,1.967a2.1,2.1,0,0,0,1.623-1.934,1.656,1.656,0,0,0-1.8-1.737A1.7,1.7,0,0,0,373.812,277.028Z" transform="translate(-372.043 -274.292)" fill="#fff"/>
        </g>
        <g id="그룹_246" data-name="그룹 246" transform="translate(310.185 385.686)">
          <path id="패스_295" data-name="패스 295" d="M372.043,454.67a3.043,3.043,0,0,1,2.113-2.851l-.015-.05a2.637,2.637,0,0,1-1.689-2.393c0-1.689,1.426-2.835,3.294-2.835,2.066,0,3.1,1.295,3.1,2.622a2.708,2.708,0,0,1-1.754,2.491v.048a2.953,2.953,0,0,1,2.146,2.754c0,1.852-1.59,3.1-3.621,3.1C373.386,457.554,372.043,456.228,372.043,454.67Zm5.735-.065c0-1.295-.9-1.917-2.344-2.327a2.314,2.314,0,0,0-1.918,2.2,1.971,1.971,0,0,0,2.131,2.032A1.927,1.927,0,0,0,377.778,454.6Zm-3.967-5.327c0,1.065.8,1.639,2.033,1.967a2.1,2.1,0,0,0,1.623-1.934,1.656,1.656,0,0,0-1.8-1.737A1.7,1.7,0,0,0,373.812,449.278Z" transform="translate(-372.043 -446.542)" fill="#fff"/>
        </g>
        <g id="그룹_247" data-name="그룹 247" transform="translate(388.14 308.21)">
          <path id="패스_296" data-name="패스 296" d="M458.256,368.987a3.044,3.044,0,0,1,2.113-2.851l-.015-.05a2.636,2.636,0,0,1-1.688-2.393c0-1.688,1.426-2.835,3.294-2.835,2.066,0,3.1,1.295,3.1,2.622a2.707,2.707,0,0,1-1.753,2.491v.048a2.954,2.954,0,0,1,2.146,2.754c0,1.852-1.59,3.1-3.621,3.1C459.6,371.872,458.256,370.545,458.256,368.987Zm5.736-.065c0-1.295-.9-1.917-2.345-2.327a2.315,2.315,0,0,0-1.917,2.2,1.97,1.97,0,0,0,2.13,2.031A1.928,1.928,0,0,0,463.992,368.922Zm-3.967-5.327c0,1.065.8,1.639,2.033,1.967a2.1,2.1,0,0,0,1.623-1.934,1.657,1.657,0,0,0-1.8-1.737A1.7,1.7,0,0,0,460.026,363.6Z" transform="translate(-458.256 -360.859)" fill="#fff"/>
        </g>
        <g id="그룹_248" data-name="그룹 248" transform="translate(201.265 308.456)">
          <path id="패스_297" data-name="패스 297" d="M258.3,361.131v.949l-4.638,9.7h-1.492l4.622-9.424v-.033h-5.212v-1.2Z" transform="translate(-251.585 -361.131)" fill="#fff"/>
        </g>
        <g id="그룹_249" data-name="그룹 249" transform="translate(310.413 418.904)">
          <path id="패스_298" data-name="패스 298" d="M379.013,483.279v.95l-4.637,9.7h-1.492l4.621-9.424v-.033h-5.211v-1.2Z" transform="translate(-372.295 -483.279)" fill="#fff"/>
        </g>
        <g id="그룹_250" data-name="그룹 250" transform="translate(310.413 198.862)">
          <path id="패스_299" data-name="패스 299" d="M379.013,239.928v.95l-4.637,9.7h-1.492l4.621-9.424v-.033h-5.211v-1.2Z" transform="translate(-372.295 -239.928)" fill="#fff"/>
        </g>
        <g id="그룹_251" data-name="그룹 251" transform="translate(420.989 308.456)">
          <path id="패스_300" data-name="패스 300" d="M501.3,361.131v.949l-4.638,9.7h-1.492l4.622-9.424v-.033h-5.212v-1.2Z" transform="translate(-494.585 -361.131)" fill="#fff"/>
        </g>
        <g id="그룹_252" data-name="그룹 252" transform="translate(168.797 308.292)">
          <path id="패스_301" data-name="패스 301" d="M221.939,362.129a5.2,5.2,0,0,0-1.082.066,4.329,4.329,0,0,0-3.7,3.786h.049a3.247,3.247,0,0,1,5.786,2.212,3.563,3.563,0,0,1-3.541,3.753c-2.278,0-3.769-1.77-3.769-4.539a6.7,6.7,0,0,1,1.8-4.8,5.8,5.8,0,0,1,3.409-1.574,7.078,7.078,0,0,1,1.049-.08Zm-.411,6.147a2.165,2.165,0,0,0-2.2-2.442,2.374,2.374,0,0,0-2.065,1.31,1.226,1.226,0,0,0-.164.64c.032,1.753.835,3.047,2.343,3.047C220.693,370.831,221.528,369.8,221.528,368.276Z" transform="translate(-215.678 -360.95)" fill="#fff"/>
        </g>
        <g id="그룹_253" data-name="그룹 253" transform="translate(310.119 449.159)">
          <path id="패스_302" data-name="패스 302" d="M378.231,517.919a5.14,5.14,0,0,0-1.082.066,4.328,4.328,0,0,0-3.7,3.785h.049a3.248,3.248,0,0,1,5.786,2.212,3.563,3.563,0,0,1-3.541,3.754c-2.278,0-3.769-1.771-3.769-4.54a6.7,6.7,0,0,1,1.8-4.8,5.8,5.8,0,0,1,3.409-1.573,6.982,6.982,0,0,1,1.049-.081Zm-.411,6.146a2.165,2.165,0,0,0-2.2-2.442,2.376,2.376,0,0,0-2.065,1.31,1.226,1.226,0,0,0-.164.64c.032,1.754.835,3.048,2.343,3.048C376.985,526.621,377.82,525.589,377.82,524.065Z" transform="translate(-371.97 -516.739)" fill="#fff"/>
        </g>
        <g id="그룹_254" data-name="그룹 254" transform="translate(310.119 165.992)">
          <path id="패스_303" data-name="패스 303" d="M378.231,204.756a5.136,5.136,0,0,0-1.082.066,4.328,4.328,0,0,0-3.7,3.785h.049a3.248,3.248,0,0,1,5.786,2.212,3.563,3.563,0,0,1-3.541,3.754c-2.278,0-3.769-1.77-3.769-4.54a6.7,6.7,0,0,1,1.8-4.8,5.8,5.8,0,0,1,3.409-1.573,6.977,6.977,0,0,1,1.049-.081Zm-.411,6.146a2.165,2.165,0,0,0-2.2-2.442,2.376,2.376,0,0,0-2.065,1.31,1.229,1.229,0,0,0-.164.64c.032,1.754.835,3.048,2.343,3.048C376.985,213.458,377.82,212.426,377.82,210.9Z" transform="translate(-371.97 -203.576)" fill="#fff"/>
        </g>
        <g id="그룹_255" data-name="그룹 255" transform="translate(452.269 308.292)">
          <path id="패스_304" data-name="패스 304" d="M535.439,362.129a5.2,5.2,0,0,0-1.082.066,4.329,4.329,0,0,0-3.7,3.786h.049a3.247,3.247,0,0,1,5.786,2.212,3.563,3.563,0,0,1-3.541,3.753c-2.278,0-3.769-1.77-3.769-4.539a6.7,6.7,0,0,1,1.8-4.8,5.8,5.8,0,0,1,3.409-1.574,7.076,7.076,0,0,1,1.049-.08Zm-.41,6.147a2.165,2.165,0,0,0-2.2-2.442,2.374,2.374,0,0,0-2.065,1.31,1.227,1.227,0,0,0-.164.64c.032,1.753.836,3.047,2.343,3.047C534.193,370.831,535.028,369.8,535.028,368.276Z" transform="translate(-529.178 -360.95)" fill="#fff"/>
        </g>
        <g id="그룹_256" data-name="그룹 256" transform="translate(139.096 308.456)">
          <path id="패스_305" data-name="패스 305" d="M189.239,362.344h-4.064l-.411,2.736a5.881,5.881,0,0,1,.869-.064,4.51,4.51,0,0,1,2.294.572,3.04,3.04,0,0,1,1.525,2.738,3.7,3.7,0,0,1-3.966,3.638,5.224,5.224,0,0,1-2.656-.655l.361-1.1a4.777,4.777,0,0,0,2.279.59,2.351,2.351,0,0,0,2.524-2.311c-.016-1.376-.934-2.361-3.065-2.361a10.935,10.935,0,0,0-1.476.116l.69-5.113h5.1Z" transform="translate(-182.831 -361.131)" fill="#070304"/>
        </g>
        <g id="그룹_257" data-name="그룹 257" transform="translate(310.429 135.351)">
          <path id="패스_306" data-name="패스 306" d="M378.721,170.9h-4.064l-.41,2.736a5.867,5.867,0,0,1,.868-.064,4.513,4.513,0,0,1,2.295.572,3.037,3.037,0,0,1,1.524,2.738,3.7,3.7,0,0,1-3.966,3.638,5.226,5.226,0,0,1-2.656-.655l.362-1.1a4.772,4.772,0,0,0,2.278.59,2.351,2.351,0,0,0,2.525-2.311c-.017-1.377-.935-2.361-3.065-2.361a10.919,10.919,0,0,0-1.476.116l.689-5.114h5.1Z" transform="translate(-372.313 -169.689)" fill="#070304"/>
        </g>
        <g id="그룹_258" data-name="그룹 258" transform="translate(310.429 480.186)">
          <path id="패스_307" data-name="패스 307" d="M378.721,552.264h-4.064l-.41,2.737a5.862,5.862,0,0,1,.868-.065,4.513,4.513,0,0,1,2.295.572,3.039,3.039,0,0,1,1.524,2.738,3.7,3.7,0,0,1-3.966,3.639,5.225,5.225,0,0,1-2.656-.656l.362-1.1a4.773,4.773,0,0,0,2.278.59,2.351,2.351,0,0,0,2.525-2.311c-.017-1.376-.935-2.36-3.065-2.36a11.1,11.1,0,0,0-1.476.115l.689-5.113h5.1Z" transform="translate(-372.313 -551.052)" fill="#070304"/>
        </g>
        <g id="그룹_259" data-name="그룹 259" transform="translate(482.469 308.456)">
          <path id="패스_308" data-name="패스 308" d="M568.985,362.344h-4.064l-.41,2.736a5.857,5.857,0,0,1,.868-.064,4.513,4.513,0,0,1,2.295.572,3.041,3.041,0,0,1,1.524,2.738,3.7,3.7,0,0,1-3.966,3.638,5.223,5.223,0,0,1-2.656-.655l.361-1.1a4.776,4.776,0,0,0,2.279.59,2.351,2.351,0,0,0,2.525-2.311c-.017-1.376-.935-2.361-3.066-2.361a10.935,10.935,0,0,0-1.476.116l.69-5.113h5.1Z" transform="translate(-562.577 -361.131)" fill="#070304"/>
        </g>
        <g id="그룹_260" data-name="그룹 260" transform="translate(107.175 308.456)">
          <path id="패스_309" data-name="패스 309" d="M152.476,371.784v-2.9h-4.948v-.95l4.751-6.8h1.559v6.621h1.49v1.131h-1.49v2.9Zm0-4.032V364.2q0-.834.05-1.671h-.05c-.327.622-.59,1.081-.885,1.573l-2.606,3.621v.033Z" transform="translate(-147.528 -361.131)" fill="#070304"/>
        </g>
        <g id="그룹_261" data-name="그룹 261" transform="translate(309.839 511.399)">
          <path id="패스_310" data-name="패스 310" d="M376.61,596.225v-2.9h-4.949v-.951l4.752-6.8h1.558v6.622h1.491v1.131h-1.491v2.9Zm0-4.032v-3.557q0-.834.05-1.671h-.05c-.327.622-.59,1.082-.885,1.573l-2.606,3.621v.034Z" transform="translate(-371.661 -585.572)" fill="#070304"/>
        </g>
        <g id="그룹_262" data-name="그룹 262" transform="translate(309.839 104.271)">
          <path id="패스_311" data-name="패스 311" d="M376.61,145.97v-2.9h-4.949v-.951l4.752-6.8h1.558v6.621h1.491v1.131h-1.491v2.9Zm0-4.032v-3.556q0-.834.05-1.671h-.05c-.327.622-.59,1.081-.885,1.573l-2.606,3.621v.033Z" transform="translate(-371.661 -135.317)" fill="#070304"/>
        </g>
        <g id="그룹_263" data-name="그룹 263" transform="translate(513.62 308.456)">
          <path id="패스_312" data-name="패스 312" d="M601.976,371.784v-2.9h-4.948v-.95l4.751-6.8h1.559v6.621h1.49v1.131h-1.49v2.9Zm0-4.032V364.2q0-.834.05-1.671h-.05c-.327.622-.589,1.081-.885,1.573l-2.606,3.621v.033Z" transform="translate(-597.028 -361.131)" fill="#070304"/>
        </g>
        <g id="그룹_264" data-name="그룹 264" transform="translate(76.366 308.276)">
          <path id="패스_313" data-name="패스 313" d="M113.849,370.109a4.814,4.814,0,0,0,2.359.673c1.853,0,2.425-1.181,2.411-2.066-.016-1.49-1.362-2.129-2.754-2.129h-.8V365.5h.8c1.048,0,2.377-.541,2.377-1.8,0-.852-.542-1.606-1.87-1.606a3.912,3.912,0,0,0-2.129.7l-.377-1.049a5.073,5.073,0,0,1,2.786-.818c2.1,0,3.048,1.245,3.048,2.539a2.645,2.645,0,0,1-1.966,2.508v.033a2.775,2.775,0,0,1,2.375,2.737c0,1.7-1.326,3.2-3.885,3.2a5.417,5.417,0,0,1-2.769-.721Z" transform="translate(-113.456 -360.932)" fill="#070304"/>
        </g>
        <g id="그룹_265" data-name="그룹 265" transform="translate(310.539 543.334)">
          <path id="패스_314" data-name="패스 314" d="M372.828,630.067a4.8,4.8,0,0,0,2.359.673c1.853,0,2.426-1.181,2.411-2.066-.016-1.49-1.362-2.129-2.754-2.129h-.8v-1.082h.8c1.049,0,2.377-.541,2.377-1.8,0-.852-.542-1.607-1.87-1.607a3.9,3.9,0,0,0-2.129.705l-.378-1.049a5.073,5.073,0,0,1,2.787-.819c2.1,0,3.047,1.246,3.047,2.54a2.645,2.645,0,0,1-1.966,2.507v.033a2.774,2.774,0,0,1,2.375,2.736c0,1.7-1.327,3.2-3.884,3.2a5.41,5.41,0,0,1-2.77-.722Z" transform="translate(-372.435 -620.89)" fill="#070304"/>
        </g>
        <g id="그룹_266" data-name="그룹 266" transform="translate(310.539 72.539)">
          <path id="패스_315" data-name="패스 315" d="M372.828,109.4a4.814,4.814,0,0,0,2.359.673c1.853,0,2.426-1.181,2.411-2.066-.016-1.491-1.362-2.129-2.754-2.129h-.8V104.8h.8c1.049,0,2.377-.541,2.377-1.8,0-.852-.542-1.606-1.87-1.606a3.906,3.906,0,0,0-2.129.7l-.378-1.049a5.074,5.074,0,0,1,2.787-.819c2.1,0,3.047,1.246,3.047,2.54a2.644,2.644,0,0,1-1.966,2.507v.033a2.774,2.774,0,0,1,2.375,2.736c0,1.7-1.327,3.2-3.884,3.2a5.421,5.421,0,0,1-2.77-.721Z" transform="translate(-372.435 -100.223)" fill="#070304"/>
        </g>
        <g id="그룹_267" data-name="그룹 267" transform="translate(546.559 308.276)">
          <path id="패스_316" data-name="패스 316" d="M633.849,370.109a4.814,4.814,0,0,0,2.359.673c1.853,0,2.425-1.181,2.411-2.066-.016-1.49-1.362-2.129-2.754-2.129h-.8V365.5h.8c1.048,0,2.377-.541,2.377-1.8,0-.852-.542-1.606-1.87-1.606a3.913,3.913,0,0,0-2.129.7l-.377-1.049a5.073,5.073,0,0,1,2.786-.818c2.1,0,3.048,1.245,3.048,2.539a2.645,2.645,0,0,1-1.966,2.508v.033a2.775,2.775,0,0,1,2.375,2.737c0,1.7-1.327,3.2-3.885,3.2a5.417,5.417,0,0,1-2.769-.721Z" transform="translate(-633.456 -360.932)" fill="#070304"/>
        </g>
        <g id="그룹_268" data-name="그룹 268" transform="translate(577.487 308.276)">
          <path id="패스_317" data-name="패스 317" d="M667.661,371.764v-.885l1.13-1.1c2.722-2.589,3.951-3.965,3.967-5.572a1.9,1.9,0,0,0-2.114-2.081,3.625,3.625,0,0,0-2.262.9l-.459-1.015a4.675,4.675,0,0,1,3.016-1.081,3,3,0,0,1,3.261,3.1c0,1.967-1.424,3.556-3.671,5.72l-.852.787v.033h4.786v1.2Z" transform="translate(-667.661 -360.932)" fill="#070304"/>
        </g>
        <g id="그룹_269" data-name="그룹 269" transform="translate(45.004 308.276)">
          <path id="패스_318" data-name="패스 318" d="M78.771,371.764v-.885l1.13-1.1c2.722-2.589,3.951-3.965,3.967-5.572a1.9,1.9,0,0,0-2.114-2.081,3.625,3.625,0,0,0-2.261.9l-.46-1.015a4.677,4.677,0,0,1,3.016-1.081,3,3,0,0,1,3.261,3.1c0,1.967-1.424,3.556-3.671,5.72l-.852.787v.033h4.786v1.2Z" transform="translate(-78.771 -360.932)" fill="#070304"/>
        </g>
        <g id="그룹_270" data-name="그룹 270" transform="translate(310.272 40.929)">
          <path id="패스_319" data-name="패스 319" d="M372.139,76.1v-.885l1.13-1.1c2.721-2.59,3.951-3.966,3.967-5.572a1.9,1.9,0,0,0-2.114-2.081,3.62,3.62,0,0,0-2.261.9l-.46-1.016a4.677,4.677,0,0,1,3.016-1.081,3,3,0,0,1,3.261,3.1c0,1.968-1.424,3.557-3.671,5.721l-.852.786V74.9h4.786v1.2Z" transform="translate(-372.139 -65.265)" fill="#070304"/>
        </g>
        <g id="그룹_271" data-name="그룹 271" transform="translate(310.272 574.869)">
          <path id="패스_320" data-name="패스 320" d="M372.139,666.6v-.885l1.13-1.1c2.721-2.59,3.951-3.966,3.967-5.572a1.9,1.9,0,0,0-2.114-2.081,3.619,3.619,0,0,0-2.261.9l-.46-1.016a4.677,4.677,0,0,1,3.016-1.081,3,3,0,0,1,3.261,3.1c0,1.968-1.424,3.557-3.671,5.721l-.852.786v.033h4.786v1.2Z" transform="translate(-372.139 -655.765)" fill="#070304"/>
        </g>
        <g id="그룹_272" data-name="그룹 272" transform="translate(14.028 308.456)">
          <path id="패스_321" data-name="패스 321" d="M46.677,362.475h-.033l-1.852,1-.278-1.1,2.327-1.246H48.07v10.653H46.677Z" transform="translate(-44.514 -361.131)" fill="#070304"/>
        </g>
        <g id="그룹_273" data-name="그룹 273" transform="translate(311.572 606.196)">
          <path id="패스_322" data-name="패스 322" d="M375.74,691.755h-.033l-1.852,1-.279-1.1,2.327-1.246h1.229v10.653H375.74Z" transform="translate(-373.577 -690.411)" fill="#070304"/>
        </g>
        <g id="그룹_274" data-name="그룹 274" transform="translate(311.572 9.917)">
          <path id="패스_323" data-name="패스 323" d="M375.74,32.311h-.033l-1.852,1-.279-1.1,2.327-1.246h1.229V41.62H375.74Z" transform="translate(-373.577 -30.967)" fill="#070304"/>
        </g>
        <g id="그룹_275" data-name="그룹 275" transform="translate(610.894 308.456)">
          <path id="패스_324" data-name="패스 324" d="M706.77,362.475h-.034l-1.852,1-.279-1.1,2.327-1.246h1.229v10.653H706.77Z" transform="translate(-704.606 -361.131)" fill="#070304"/>
        </g>
        <circle id="타원_119" data-name="타원 119" cx="14" cy="14" r="14" transform="translate(299.763 299.763)" fill="none" stroke="#151616" stroke-width="1"/>
      </g>
    </g>
  </g>
</svg>
