<svg xmlns="http://www.w3.org/2000/svg" width="144.36" height="72.218" viewBox="0 0 144.36 72.218">
  <path id="패스_7709" data-name="패스 7709" d="M335.887,1535.269l15.33-3.36-.075-11.167-15.15-3.108a55.6,55.6,0,0,0-3.248-12.026l11.554-10.536-5.648-9.633-14.9,4.957a56.323,56.323,0,0,0-8.733-8.453l4.87-15.314-9.709-5.517-10.848,12.22a55.67,55.67,0,0,0-11.2-2.693l-3.6-16.436-5.525.037v38.2c.467-.022.936-.042,1.408-.045a33.742,33.742,0,1,1,.452,67.482c-.624,0-1.244-.012-1.86-.04v38.725l5.68-.038,3.467-16.9a55.611,55.611,0,0,0,10.725-2.536l11.478,12.588,9.634-5.649-5.168-15.531a56.332,56.332,0,0,0,8.524-8.144l15.454,4.913,5.518-9.708-11.746-10.426A55.6,55.6,0,0,0,335.887,1535.269Z" transform="translate(1598.564 -279) rotate(90)" fill="#fff" opacity="0.03"/>
</svg>
