<svg xmlns="http://www.w3.org/2000/svg" width="79.105" height="97.073" viewBox="0 0 79.105 97.073">
  <g id="그룹_971" data-name="그룹 971" transform="translate(0 0)">
    <path id="패스_8388" data-name="패스 8388" d="M723.9,534.818a5.791,5.791,0,0,0-5.783,5.786v85.5a5.793,5.793,0,0,0,5.783,5.786h51.636V620.53a9.1,9.1,0,0,1,9.087-9.086h12.6V540.6a5.791,5.791,0,0,0-5.785-5.786Zm58.244,52.965H733.19V583.8h48.949Zm0-13.933H733.19V569.87h48.949Zm0-13.933H733.19v-3.981h48.949Z" transform="translate(-718.112 -534.818)" fill="#fff"/>
    <path id="패스_8389" data-name="패스 8389" d="M756.015,590.5v9.186l15.879-14.972H761.8A5.793,5.793,0,0,0,756.015,590.5Z" transform="translate(-695.294 -504.784)" fill="#fff"/>
  </g>
</svg>
